<svg width="32" height="32" viewBox="0 0 32 32" fill="none" xmlns="http://www.w3.org/2000/svg">
<path d="M5.33398 7.99935C5.33398 7.64573 5.47446 7.30659 5.72451 7.05654C5.97456 6.80649 6.3137 6.66602 6.66732 6.66602H25.334C25.6876 6.66602 26.0267 6.80649 26.2768 7.05654C26.5268 7.30659 26.6673 7.64573 26.6673 7.99935C26.6673 8.35297 26.5268 8.69211 26.2768 8.94216C26.0267 9.19221 25.6876 9.33268 25.334 9.33268H6.66732C6.3137 9.33268 5.97456 9.19221 5.72451 8.94216C5.47446 8.69211 5.33398 8.35297 5.33398 7.99935ZM5.33398 15.9993C5.33398 15.6457 5.47446 15.3066 5.72451 15.0565C5.97456 14.8065 6.3137 14.666 6.66732 14.666H25.334C25.6876 14.666 26.0267 14.8065 26.2768 15.0565C26.5268 15.3066 26.6673 15.6457 26.6673 15.9993C26.6673 16.353 26.5268 16.6921 26.2768 16.9422C26.0267 17.1922 25.6876 17.3327 25.334 17.3327H6.66732C6.3137 17.3327 5.97456 17.1922 5.72451 16.9422C5.47446 16.6921 5.33398 16.353 5.33398 15.9993ZM6.66732 22.666C6.3137 22.666 5.97456 22.8065 5.72451 23.0565C5.47446 23.3066 5.33398 23.6457 5.33398 23.9993C5.33398 24.353 5.47446 24.6921 5.72451 24.9422C5.97456 25.1922 6.3137 25.3327 6.66732 25.3327H25.334C25.6876 25.3327 26.0267 25.1922 26.2768 24.9422C26.5268 24.6921 26.6673 24.353 26.6673 23.9993C26.6673 23.6457 26.5268 23.3066 26.2768 23.0565C26.0267 22.8065 25.6876 22.666 25.334 22.666H6.66732Z" fill="#061F79"/>
</svg>
