<svg width="147" height="46" viewBox="0 0 147 46" fill="none" xmlns="http://www.w3.org/2000/svg">
<path d="M34.93 27.1387V24.6787H39.87C40.0033 24.6787 40.1233 24.652 40.23 24.5987C40.3367 24.532 40.4233 24.4453 40.49 24.3387C40.5567 24.232 40.59 24.1187 40.59 23.9987C40.59 23.8653 40.5567 23.7453 40.49 23.6387C40.4233 23.532 40.3367 23.452 40.23 23.3987C40.1233 23.332 40.0033 23.2987 39.87 23.2987H38.07C37.4033 23.2987 36.7967 23.192 36.25 22.9787C35.7167 22.752 35.29 22.4053 34.97 21.9387C34.6633 21.4587 34.51 20.8387 34.51 20.0787C34.51 19.492 34.65 18.9587 34.93 18.4787C35.2233 17.9987 35.6167 17.612 36.11 17.3187C36.6167 17.0253 37.17 16.8787 37.77 16.8787H42.71V19.3587H38.25C38.0633 19.3587 37.9033 19.4187 37.77 19.5387C37.65 19.6587 37.59 19.8053 37.59 19.9787C37.59 20.1653 37.65 20.3253 37.77 20.4587C37.9033 20.5787 38.0633 20.6387 38.25 20.6387H40.01C40.7567 20.6387 41.3967 20.752 41.93 20.9787C42.4767 21.192 42.8967 21.5387 43.19 22.0187C43.4967 22.4987 43.65 23.1187 43.65 23.8787C43.65 24.4787 43.4967 25.0253 43.19 25.5187C42.8967 26.012 42.4967 26.4053 41.99 26.6987C41.4967 26.992 40.9367 27.1387 40.31 27.1387H34.93ZM45.5155 27.1387V12.5387H48.6155V20.7587H49.9755L52.3155 16.8787H55.7755L53.0155 21.1587C53.8155 21.492 54.4355 22.0053 54.8755 22.6987C55.3288 23.3787 55.5555 24.1787 55.5555 25.0987V27.1387H52.4355V25.0987C52.4355 24.7253 52.3421 24.392 52.1555 24.0987C51.9821 23.792 51.7488 23.552 51.4555 23.3787C51.1621 23.2053 50.8288 23.1187 50.4555 23.1187H48.6155V27.1387H45.5155ZM57.4667 27.1387V19.8987C57.4667 18.9653 57.7334 18.232 58.2667 17.6987C58.8001 17.1653 59.5401 16.8987 60.4867 16.8987H63.4667V19.4187H61.2467C61.0601 19.4187 60.9001 19.4853 60.7667 19.6187C60.6334 19.7387 60.5667 19.8987 60.5667 20.0987V27.1387H57.4667ZM64.8514 27.1387V16.8787H67.9714V27.1387H64.8514ZM66.4114 15.7187C65.9181 15.7187 65.4914 15.5387 65.1314 15.1787C64.7714 14.8187 64.5914 14.392 64.5914 13.8987C64.5914 13.4053 64.7714 12.9787 65.1314 12.6187C65.4914 12.2453 65.9181 12.0587 66.4114 12.0587C66.9047 12.0587 67.3314 12.2453 67.6914 12.6187C68.0514 12.9787 68.2314 13.4053 68.2314 13.8987C68.2314 14.392 68.0514 14.8187 67.6914 15.1787C67.3314 15.5387 66.9047 15.7187 66.4114 15.7187ZM75.662 16.6387C76.5287 16.6387 77.2954 16.7787 77.962 17.0587C78.642 17.3253 79.2154 17.712 79.682 18.2187C80.162 18.712 80.5287 19.2987 80.782 19.9787C81.0354 20.6453 81.162 21.3853 81.162 22.1987C81.162 23.212 80.9487 24.112 80.522 24.8987C80.1087 25.672 79.5354 26.2787 78.802 26.7187C78.0687 27.1587 77.2154 27.3787 76.242 27.3787C75.8287 27.3787 75.4354 27.3253 75.062 27.2187C74.702 27.112 74.3687 26.9587 74.062 26.7587C73.7687 26.5587 73.522 26.312 73.322 26.0187H73.262V31.4787H70.162V22.1987C70.162 21.0653 70.3887 20.0853 70.842 19.2587C71.2954 18.432 71.9354 17.792 72.762 17.3387C73.5887 16.872 74.5554 16.6387 75.662 16.6387ZM75.662 19.3187C75.182 19.3187 74.762 19.4387 74.402 19.6787C74.0554 19.9053 73.7887 20.2253 73.602 20.6387C73.4154 21.0387 73.322 21.492 73.322 21.9987C73.322 22.5053 73.4154 22.9587 73.602 23.3587C73.7887 23.7587 74.0554 24.0787 74.402 24.3187C74.762 24.5453 75.182 24.6587 75.662 24.6587C76.142 24.6587 76.5554 24.5453 76.902 24.3187C77.2487 24.0787 77.5154 23.7587 77.702 23.3587C77.902 22.9587 78.002 22.5053 78.002 21.9987C78.002 21.492 77.902 21.0387 77.702 20.6387C77.5154 20.2253 77.2487 19.9053 76.902 19.6787C76.5554 19.4387 76.142 19.3187 75.662 19.3187ZM86.3653 27.1387C85.4186 27.1387 84.6786 26.872 84.1453 26.3387C83.612 25.792 83.3453 25.0587 83.3453 24.1387V14.3787H86.4653V23.9587C86.4653 24.1187 86.5186 24.2587 86.6253 24.3787C86.7453 24.4853 86.8853 24.5387 87.0453 24.5387H89.2853V27.1387H86.3653ZM81.6653 19.4187V16.8787H89.2853V19.4187H81.6653ZM95.908 27.3787C94.8546 27.3787 93.908 27.1453 93.068 26.6787C92.228 26.212 91.5613 25.572 91.068 24.7587C90.588 23.9453 90.348 23.032 90.348 22.0187C90.348 20.992 90.588 20.0787 91.068 19.2787C91.5613 18.4653 92.228 17.8253 93.068 17.3587C93.908 16.8787 94.8546 16.6387 95.908 16.6387C96.9613 16.6387 97.9013 16.8787 98.728 17.3587C99.568 17.8253 100.228 18.4653 100.708 19.2787C101.201 20.0787 101.448 20.992 101.448 22.0187C101.448 23.032 101.201 23.9453 100.708 24.7587C100.228 25.572 99.568 26.212 98.728 26.6787C97.888 27.1453 96.948 27.3787 95.908 27.3787ZM95.908 24.6787C96.4013 24.6787 96.828 24.5587 97.188 24.3187C97.548 24.0787 97.828 23.7587 98.028 23.3587C98.228 22.9587 98.328 22.5053 98.328 21.9987C98.328 21.5053 98.228 21.0587 98.028 20.6587C97.828 20.2587 97.548 19.9387 97.188 19.6987C96.828 19.4587 96.4013 19.3387 95.908 19.3387C95.4146 19.3387 94.9813 19.4587 94.608 19.6987C94.248 19.9387 93.968 20.2587 93.768 20.6587C93.568 21.0587 93.468 21.5053 93.468 21.9987C93.468 22.5053 93.568 22.9587 93.768 23.3587C93.968 23.7587 94.248 24.0787 94.608 24.3187C94.9813 24.5587 95.4146 24.6787 95.908 24.6787ZM103.209 27.1387V19.8987C103.209 18.9653 103.476 18.232 104.009 17.6987C104.542 17.1653 105.282 16.8987 106.229 16.8987H109.209V19.4187H106.989C106.802 19.4187 106.642 19.4853 106.509 19.6187C106.376 19.7387 106.309 19.8987 106.309 20.0987V27.1387H103.209ZM110.594 27.1387V16.8787H113.714V27.1387H110.594ZM112.154 15.7187C111.66 15.7187 111.234 15.5387 110.874 15.1787C110.514 14.8187 110.334 14.392 110.334 13.8987C110.334 13.4053 110.514 12.9787 110.874 12.6187C111.234 12.2453 111.66 12.0587 112.154 12.0587C112.647 12.0587 113.074 12.2453 113.434 12.6187C113.794 12.9787 113.974 13.4053 113.974 13.8987C113.974 14.392 113.794 14.8187 113.434 15.1787C113.074 15.5387 112.647 15.7187 112.154 15.7187ZM121.104 27.3787C120.051 27.3787 119.138 27.1787 118.364 26.7787C117.604 26.3653 117.018 25.812 116.604 25.1187C116.191 24.412 115.984 23.632 115.984 22.7787V16.8787H119.084V22.6987C119.084 23.0587 119.171 23.392 119.344 23.6987C119.518 23.992 119.751 24.232 120.044 24.4187C120.351 24.592 120.698 24.6787 121.084 24.6787C121.458 24.6787 121.791 24.592 122.084 24.4187C122.391 24.232 122.631 23.992 122.804 23.6987C122.978 23.392 123.064 23.0587 123.064 22.6987V16.8787H126.164V22.7787C126.164 23.632 125.964 24.412 125.564 25.1187C125.164 25.812 124.584 26.3653 123.824 26.7787C123.078 27.1787 122.171 27.3787 121.104 27.3787ZM128.484 27.1387V21.0787C128.484 20.2387 128.678 19.4853 129.064 18.8187C129.464 18.1387 130.031 17.6053 130.764 17.2187C131.498 16.832 132.371 16.6387 133.384 16.6387C133.891 16.6387 134.358 16.6987 134.784 16.8187C135.211 16.9253 135.598 17.0787 135.944 17.2787C136.304 17.4653 136.611 17.692 136.864 17.9587H136.904C137.171 17.692 137.478 17.4653 137.824 17.2787C138.184 17.0787 138.578 16.9253 139.004 16.8187C139.444 16.6987 139.918 16.6387 140.424 16.6387C141.438 16.6387 142.311 16.832 143.044 17.2187C143.778 17.6053 144.344 18.1387 144.744 18.8187C145.144 19.4853 145.344 20.2387 145.344 21.0787V27.1387H142.224V21.1787C142.224 20.8453 142.138 20.5453 141.964 20.2787C141.804 19.9987 141.584 19.772 141.304 19.5987C141.024 19.4253 140.704 19.3387 140.344 19.3387C139.984 19.3387 139.658 19.4253 139.364 19.5987C139.084 19.772 138.864 19.9987 138.704 20.2787C138.544 20.5453 138.464 20.8453 138.464 21.1787V27.1387H135.364V21.1787C135.364 20.8453 135.278 20.5453 135.104 20.2787C134.944 19.9987 134.718 19.772 134.424 19.5987C134.144 19.4253 133.824 19.3387 133.464 19.3387C133.104 19.3387 132.778 19.4253 132.484 19.5987C132.204 19.772 131.984 19.9987 131.824 20.2787C131.664 20.5453 131.584 20.8453 131.584 21.1787V27.1387H128.484Z" fill="#061F79"/>
<path d="M39.8873 11.3537L22.3074 1.27983C21.0755 0.573924 19.5618 0.573923 18.3299 1.27983L2.76125 10.2012C1.51731 10.914 0.75 12.238 0.75 13.6717V31.4626C0.75 32.8963 1.51731 34.2204 2.76125 34.9332L18.3299 43.8545C19.5617 44.5604 21.0755 44.5604 22.3074 43.8545L39.8873 33.7807" stroke="#061F79" stroke-width="1.5" stroke-linecap="round"/>
<path d="M37.249 12.8909L22.3034 4.35058C21.0737 3.64788 19.564 3.64788 18.3343 4.35058L5.40412 11.7392C4.15782 12.4514 3.38867 13.7768 3.38867 15.2122V29.9184C3.38867 31.3538 4.15782 32.6792 5.40412 33.3914L18.3343 40.78C19.564 41.4827 21.0737 41.4827 22.3034 40.78L37.249 32.2397" stroke="#061F79" stroke-width="0.5" stroke-linecap="round"/>
</svg>
