<svg width="1474" height="161" viewBox="0 0 1474 161" fill="none" xmlns="http://www.w3.org/2000/svg">
<path d="M906 91H1042" stroke="#04005A" stroke-width="6"/>
<path d="M1094.42 54V41.4H1105.75V54H1104.05V42.432L1104.48 42.888H1095.7L1096.13 42.432V54H1094.42ZM1108.29 53.976L1108.41 52.512C1108.52 52.528 1108.63 52.552 1108.72 52.584C1108.84 52.6 1108.93 52.608 1109.01 52.608C1109.52 52.608 1109.93 52.416 1110.24 52.032C1110.56 51.648 1110.8 51.136 1110.96 50.496C1111.12 49.856 1111.23 49.136 1111.29 48.336C1111.36 47.52 1111.41 46.704 1111.46 45.888L1111.68 41.4H1120.92V54H1119.21V42.384L1119.64 42.888H1112.78L1113.19 42.36L1113 46.008C1112.95 47.096 1112.86 48.136 1112.73 49.128C1112.62 50.12 1112.44 50.992 1112.18 51.744C1111.94 52.496 1111.6 53.088 1111.17 53.52C1110.74 53.936 1110.19 54.144 1109.52 54.144C1109.32 54.144 1109.12 54.128 1108.92 54.096C1108.72 54.064 1108.52 54.024 1108.29 53.976ZM1133.58 54V51.216L1133.51 50.76V46.104C1133.51 45.032 1133.21 44.208 1132.6 43.632C1132.01 43.056 1131.12 42.768 1129.94 42.768C1129.12 42.768 1128.34 42.904 1127.61 43.176C1126.87 43.448 1126.25 43.808 1125.74 44.256L1124.97 42.984C1125.61 42.44 1126.38 42.024 1127.27 41.736C1128.17 41.432 1129.11 41.28 1130.1 41.28C1131.74 41.28 1132.99 41.688 1133.87 42.504C1134.77 43.304 1135.22 44.528 1135.22 46.176V54H1133.58ZM1129.24 54.12C1128.3 54.12 1127.47 53.968 1126.77 53.664C1126.08 53.344 1125.55 52.912 1125.18 52.368C1124.82 51.808 1124.63 51.168 1124.63 50.448C1124.63 49.792 1124.78 49.2 1125.09 48.672C1125.41 48.128 1125.92 47.696 1126.62 47.376C1127.34 47.04 1128.3 46.872 1129.5 46.872H1133.85V48.144H1129.55C1128.34 48.144 1127.49 48.36 1127.01 48.792C1126.54 49.224 1126.31 49.76 1126.31 50.4C1126.31 51.12 1126.59 51.696 1127.15 52.128C1127.71 52.56 1128.5 52.776 1129.5 52.776C1130.46 52.776 1131.29 52.56 1131.98 52.128C1132.68 51.68 1133.19 51.04 1133.51 50.208L1133.9 51.384C1133.58 52.216 1133.02 52.88 1132.22 53.376C1131.43 53.872 1130.44 54.12 1129.24 54.12ZM1142.15 54V42.432L1142.58 42.888H1137.38V41.4H1148.63V42.888H1143.42L1143.86 42.432V54H1142.15ZM1157.59 54.144C1157.59 54.144 1157.56 54.144 1157.49 54.144C1157.43 54.144 1157.37 54.144 1157.3 54.144C1157.25 54.144 1157.21 54.144 1157.18 54.144C1154.69 54.128 1152.74 53.56 1151.35 52.44C1149.96 51.32 1149.26 49.728 1149.26 47.664C1149.26 45.632 1149.96 44.064 1151.35 42.96C1152.76 41.84 1154.73 41.272 1157.28 41.256C1157.29 41.256 1157.33 41.256 1157.37 41.256C1157.44 41.256 1157.49 41.256 1157.54 41.256C1157.59 41.256 1157.62 41.256 1157.64 41.256C1160.2 41.272 1162.19 41.84 1163.61 42.96C1165.04 44.064 1165.75 45.632 1165.75 47.664C1165.75 49.744 1165.03 51.344 1163.59 52.464C1162.17 53.584 1160.17 54.144 1157.59 54.144ZM1157.57 52.656C1158.99 52.656 1160.18 52.464 1161.14 52.08C1162.1 51.68 1162.83 51.112 1163.33 50.376C1163.82 49.64 1164.07 48.736 1164.07 47.664C1164.07 46.624 1163.82 45.744 1163.33 45.024C1162.83 44.288 1162.1 43.728 1161.14 43.344C1160.18 42.96 1158.99 42.768 1157.57 42.768C1157.55 42.768 1157.5 42.768 1157.42 42.768C1157.36 42.768 1157.32 42.768 1157.3 42.768C1155.91 42.768 1154.74 42.968 1153.8 43.368C1152.85 43.752 1152.14 44.304 1151.66 45.024C1151.18 45.744 1150.94 46.624 1150.94 47.664C1150.94 48.72 1151.18 49.616 1151.66 50.352C1152.16 51.088 1152.88 51.656 1153.82 52.056C1154.77 52.44 1155.93 52.64 1157.3 52.656C1157.33 52.656 1157.38 52.656 1157.45 52.656C1157.51 52.656 1157.55 52.656 1157.57 52.656ZM1156.65 58.656V36.192H1158.31V58.656H1156.65ZM1174.54 54.12C1173.32 54.12 1172.23 53.848 1171.25 53.304C1170.29 52.744 1169.53 51.984 1168.97 51.024C1168.41 50.048 1168.13 48.936 1168.13 47.688C1168.13 46.424 1168.41 45.312 1168.97 44.352C1169.53 43.392 1170.29 42.64 1171.25 42.096C1172.21 41.552 1173.31 41.28 1174.54 41.28C1175.79 41.28 1176.89 41.552 1177.85 42.096C1178.83 42.64 1179.59 43.392 1180.13 44.352C1180.69 45.312 1180.97 46.424 1180.97 47.688C1180.97 48.936 1180.69 50.048 1180.13 51.024C1179.59 51.984 1178.83 52.744 1177.85 53.304C1176.87 53.848 1175.77 54.12 1174.54 54.12ZM1174.54 52.608C1175.45 52.608 1176.26 52.408 1176.96 52.008C1177.67 51.592 1178.22 51.016 1178.62 50.28C1179.03 49.528 1179.24 48.664 1179.24 47.688C1179.24 46.696 1179.03 45.832 1178.62 45.096C1178.22 44.36 1177.67 43.792 1176.96 43.392C1176.26 42.976 1175.46 42.768 1174.56 42.768C1173.67 42.768 1172.87 42.976 1172.16 43.392C1171.46 43.792 1170.9 44.36 1170.48 45.096C1170.07 45.832 1169.86 46.696 1169.86 47.688C1169.86 48.664 1170.07 49.528 1170.48 50.28C1170.9 51.016 1171.46 51.592 1172.16 52.008C1172.87 52.408 1173.66 52.608 1174.54 52.608ZM1191.12 54.12C1190.03 54.12 1189.04 53.872 1188.16 53.376C1187.28 52.864 1186.58 52.136 1186.05 51.192C1185.54 50.232 1185.28 49.064 1185.28 47.688C1185.28 46.312 1185.54 45.152 1186.05 44.208C1186.56 43.248 1187.26 42.52 1188.14 42.024C1189.02 41.528 1190.01 41.28 1191.12 41.28C1192.32 41.28 1193.39 41.552 1194.33 42.096C1195.29 42.624 1196.04 43.376 1196.59 44.352C1197.13 45.312 1197.4 46.424 1197.4 47.688C1197.4 48.968 1197.13 50.088 1196.59 51.048C1196.04 52.008 1195.29 52.76 1194.33 53.304C1193.39 53.848 1192.32 54.12 1191.12 54.12ZM1184.61 58.656V41.4H1186.24V45.192L1186.08 47.712L1186.32 50.256V58.656H1184.61ZM1191 52.608C1191.89 52.608 1192.69 52.408 1193.4 52.008C1194.1 51.592 1194.66 51.016 1195.08 50.28C1195.49 49.528 1195.7 48.664 1195.7 47.688C1195.7 46.712 1195.49 45.856 1195.08 45.12C1194.66 44.384 1194.1 43.808 1193.4 43.392C1192.69 42.976 1191.89 42.768 1191 42.768C1190.1 42.768 1189.29 42.976 1188.57 43.392C1187.87 43.808 1187.31 44.384 1186.89 45.12C1186.49 45.856 1186.29 46.712 1186.29 47.688C1186.29 48.664 1186.49 49.528 1186.89 50.28C1187.31 51.016 1187.87 51.592 1188.57 52.008C1189.29 52.408 1190.1 52.608 1191 52.608ZM1201.06 54V41.4H1202.79L1208.5 51.072H1207.78L1213.59 41.4H1215.18V54H1213.62V43.344L1213.93 43.488L1208.5 52.464H1207.74L1202.26 43.392L1202.62 43.32V54H1201.06ZM1227.85 54V51.216L1227.78 50.76V46.104C1227.78 45.032 1227.47 44.208 1226.87 43.632C1226.27 43.056 1225.39 42.768 1224.2 42.768C1223.39 42.768 1222.61 42.904 1221.87 43.176C1221.14 43.448 1220.51 43.808 1220 44.256L1219.23 42.984C1219.87 42.44 1220.64 42.024 1221.54 41.736C1222.43 41.432 1223.38 41.28 1224.37 41.28C1226 41.28 1227.26 41.688 1228.14 42.504C1229.03 43.304 1229.48 44.528 1229.48 46.176V54H1227.85ZM1223.51 54.12C1222.56 54.12 1221.74 53.968 1221.03 53.664C1220.35 53.344 1219.82 52.912 1219.45 52.368C1219.08 51.808 1218.9 51.168 1218.9 50.448C1218.9 49.792 1219.05 49.2 1219.35 48.672C1219.67 48.128 1220.19 47.696 1220.89 47.376C1221.61 47.04 1222.57 46.872 1223.77 46.872H1228.11V48.144H1223.82C1222.6 48.144 1221.75 48.36 1221.27 48.792C1220.81 49.224 1220.58 49.76 1220.58 50.4C1220.58 51.12 1220.86 51.696 1221.42 52.128C1221.98 52.56 1222.76 52.776 1223.77 52.776C1224.73 52.776 1225.55 52.56 1226.24 52.128C1226.95 51.68 1227.46 51.04 1227.78 50.208L1228.16 51.384C1227.84 52.216 1227.28 52.88 1226.48 53.376C1225.7 53.872 1224.71 54.12 1223.51 54.12ZM1265.28 53.184V42.888H1259.21L1259.07 45.696C1259.03 46.544 1258.98 47.376 1258.9 48.192C1258.83 49.008 1258.71 49.76 1258.54 50.448C1258.38 51.12 1258.15 51.672 1257.84 52.104C1257.54 52.52 1257.15 52.76 1256.67 52.824L1254.96 52.512C1255.46 52.528 1255.87 52.352 1256.19 51.984C1256.51 51.6 1256.75 51.08 1256.93 50.424C1257.11 49.768 1257.23 49.024 1257.31 48.192C1257.39 47.344 1257.46 46.48 1257.51 45.6L1257.67 41.4H1266.99V53.184H1265.28ZM1254.43 57.048V52.512H1268.95V57.048H1267.35V54H1256.04V57.048H1254.43ZM1269.97 53.976L1270.09 52.512C1270.2 52.528 1270.31 52.552 1270.4 52.584C1270.52 52.6 1270.61 52.608 1270.69 52.608C1271.2 52.608 1271.61 52.416 1271.92 52.032C1272.24 51.648 1272.48 51.136 1272.64 50.496C1272.8 49.856 1272.91 49.136 1272.97 48.336C1273.04 47.52 1273.09 46.704 1273.14 45.888L1273.36 41.4H1282.6V54H1280.89V42.384L1281.32 42.888H1274.46L1274.87 42.36L1274.68 46.008C1274.63 47.096 1274.54 48.136 1274.41 49.128C1274.3 50.12 1274.12 50.992 1273.86 51.744C1273.62 52.496 1273.28 53.088 1272.85 53.52C1272.42 53.936 1271.87 54.144 1271.2 54.144C1271 54.144 1270.8 54.128 1270.6 54.096C1270.4 54.064 1270.2 54.024 1269.97 53.976ZM1295.58 54V49.464L1295.89 49.824H1291.62C1290 49.824 1288.74 49.472 1287.82 48.768C1286.91 48.064 1286.46 47.04 1286.46 45.696C1286.46 44.256 1286.94 43.184 1287.92 42.48C1288.9 41.76 1290.2 41.4 1291.83 41.4H1297.14V54H1295.58ZM1286.36 54L1289.82 49.152H1291.59L1288.21 54H1286.36ZM1295.58 48.96V42.384L1295.89 42.888H1291.88C1290.71 42.888 1289.8 43.112 1289.14 43.56C1288.5 44.008 1288.18 44.736 1288.18 45.744C1288.18 47.616 1289.38 48.552 1291.76 48.552H1295.89L1295.58 48.96ZM1324.84 58.776C1324.24 58.776 1323.68 58.68 1323.13 58.488C1322.6 58.296 1322.15 58.008 1321.76 57.624L1322.56 56.352C1322.88 56.656 1323.22 56.888 1323.59 57.048C1323.97 57.224 1324.4 57.312 1324.86 57.312C1325.42 57.312 1325.9 57.152 1326.3 56.832C1326.72 56.528 1327.11 55.984 1327.48 55.2L1328.29 53.352L1328.48 53.088L1333.67 41.4H1335.35L1329.04 55.512C1328.68 56.328 1328.29 56.976 1327.86 57.456C1327.44 57.936 1326.99 58.272 1326.49 58.464C1326 58.672 1325.44 58.776 1324.84 58.776ZM1328.2 54.36L1322.39 41.4H1324.16L1329.3 52.968L1328.2 54.36ZM1338 54V41.4H1349.33V54H1347.63V42.432L1348.06 42.888H1339.27L1339.71 42.432V54H1338ZM1360.68 54.12C1359.59 54.12 1358.61 53.872 1357.73 53.376C1356.85 52.864 1356.14 52.136 1355.61 51.192C1355.1 50.232 1354.85 49.064 1354.85 47.688C1354.85 46.312 1355.1 45.152 1355.61 44.208C1356.13 43.248 1356.82 42.52 1357.7 42.024C1358.58 41.528 1359.57 41.28 1360.68 41.28C1361.88 41.28 1362.95 41.552 1363.89 42.096C1364.85 42.624 1365.61 43.376 1366.15 44.352C1366.69 45.312 1366.97 46.424 1366.97 47.688C1366.97 48.968 1366.69 50.088 1366.15 51.048C1365.61 52.008 1364.85 52.76 1363.89 53.304C1362.95 53.848 1361.88 54.12 1360.68 54.12ZM1354.17 58.656V41.4H1355.81V45.192L1355.64 47.712L1355.88 50.256V58.656H1354.17ZM1360.56 52.608C1361.45 52.608 1362.25 52.408 1362.96 52.008C1363.66 51.592 1364.22 51.016 1364.64 50.28C1365.05 49.528 1365.26 48.664 1365.26 47.688C1365.26 46.712 1365.05 45.856 1364.64 45.12C1364.22 44.384 1363.66 43.808 1362.96 43.392C1362.25 42.976 1361.45 42.768 1360.56 42.768C1359.66 42.768 1358.85 42.976 1358.13 43.392C1357.43 43.808 1356.87 44.384 1356.45 45.12C1356.05 45.856 1355.85 46.712 1355.85 47.688C1355.85 48.664 1356.05 49.528 1356.45 50.28C1356.87 51.016 1357.43 51.592 1358.13 52.008C1358.85 52.408 1359.66 52.608 1360.56 52.608ZM1378.38 54V51.216L1378.31 50.76V46.104C1378.31 45.032 1378 44.208 1377.4 43.632C1376.8 43.056 1375.92 42.768 1374.73 42.768C1373.92 42.768 1373.14 42.904 1372.4 43.176C1371.67 43.448 1371.04 43.808 1370.53 44.256L1369.76 42.984C1370.4 42.44 1371.17 42.024 1372.07 41.736C1372.96 41.432 1373.91 41.28 1374.9 41.28C1376.53 41.28 1377.79 41.688 1378.67 42.504C1379.56 43.304 1380.01 44.528 1380.01 46.176V54H1378.38ZM1374.04 54.12C1373.09 54.12 1372.27 53.968 1371.56 53.664C1370.88 53.344 1370.35 52.912 1369.98 52.368C1369.61 51.808 1369.43 51.168 1369.43 50.448C1369.43 49.792 1369.58 49.2 1369.88 48.672C1370.2 48.128 1370.72 47.696 1371.42 47.376C1372.14 47.04 1373.1 46.872 1374.3 46.872H1378.64V48.144H1374.35C1373.13 48.144 1372.28 48.36 1371.8 48.792C1371.34 49.224 1371.11 49.76 1371.11 50.4C1371.11 51.12 1371.39 51.696 1371.95 52.128C1372.51 52.56 1373.29 52.776 1374.3 52.776C1375.26 52.776 1376.08 52.56 1376.77 52.128C1377.48 51.68 1377.99 51.04 1378.31 50.208L1378.69 51.384C1378.37 52.216 1377.81 52.88 1377.01 53.376C1376.23 53.872 1375.24 54.12 1374.04 54.12ZM1384.55 54V41.4H1390.12C1391.54 41.4 1392.66 41.672 1393.48 42.216C1394.31 42.76 1394.73 43.56 1394.73 44.616C1394.73 45.64 1394.33 46.432 1393.55 46.992C1392.77 47.536 1391.73 47.808 1390.45 47.808L1390.79 47.304C1392.29 47.304 1393.4 47.584 1394.1 48.144C1394.81 48.704 1395.16 49.512 1395.16 50.568C1395.16 51.656 1394.76 52.504 1393.96 53.112C1393.17 53.704 1391.95 54 1390.29 54H1384.55ZM1386.21 52.656H1390.21C1391.29 52.656 1392.09 52.488 1392.64 52.152C1393.2 51.8 1393.48 51.24 1393.48 50.472C1393.48 49.704 1393.23 49.144 1392.73 48.792C1392.24 48.44 1391.45 48.264 1390.38 48.264H1386.21V52.656ZM1386.21 46.992H1390C1390.97 46.992 1391.72 46.808 1392.23 46.44C1392.76 46.072 1393.02 45.536 1393.02 44.832C1393.02 44.128 1392.76 43.6 1392.23 43.248C1391.72 42.896 1390.97 42.72 1390 42.72H1386.21V46.992ZM1396.85 53.976L1396.97 52.512C1397.08 52.528 1397.18 52.552 1397.28 52.584C1397.39 52.6 1397.49 52.608 1397.57 52.608C1398.08 52.608 1398.49 52.416 1398.79 52.032C1399.11 51.648 1399.35 51.136 1399.51 50.496C1399.67 49.856 1399.78 49.136 1399.85 48.336C1399.91 47.52 1399.97 46.704 1400.01 45.888L1400.23 41.4H1409.47V54H1407.77V42.384L1408.2 42.888H1401.33L1401.74 42.36L1401.55 46.008C1401.5 47.096 1401.41 48.136 1401.29 49.128C1401.17 50.12 1400.99 50.992 1400.73 51.744C1400.49 52.496 1400.16 53.088 1399.73 53.52C1399.29 53.936 1398.74 54.144 1398.07 54.144C1397.88 54.144 1397.68 54.128 1397.47 54.096C1397.28 54.064 1397.07 54.024 1396.85 53.976ZM1419.71 54.12C1418.4 54.12 1417.25 53.848 1416.26 53.304C1415.27 52.744 1414.49 51.984 1413.93 51.024C1413.37 50.048 1413.09 48.936 1413.09 47.688C1413.09 46.44 1413.35 45.336 1413.88 44.376C1414.43 43.416 1415.16 42.664 1416.09 42.12C1417.03 41.56 1418.09 41.28 1419.26 41.28C1420.44 41.28 1421.49 41.552 1422.4 42.096C1423.33 42.624 1424.06 43.376 1424.59 44.352C1425.11 45.312 1425.38 46.424 1425.38 47.688C1425.38 47.768 1425.37 47.856 1425.35 47.952C1425.35 48.032 1425.35 48.12 1425.35 48.216H1414.39V46.944H1424.44L1423.77 47.448C1423.77 46.536 1423.57 45.728 1423.17 45.024C1422.79 44.304 1422.26 43.744 1421.59 43.344C1420.91 42.944 1420.14 42.744 1419.26 42.744C1418.39 42.744 1417.62 42.944 1416.93 43.344C1416.24 43.744 1415.71 44.304 1415.32 45.024C1414.94 45.744 1414.75 46.568 1414.75 47.496V47.76C1414.75 48.72 1414.95 49.568 1415.37 50.304C1415.8 51.024 1416.39 51.592 1417.15 52.008C1417.91 52.408 1418.79 52.608 1419.76 52.608C1420.53 52.608 1421.24 52.472 1421.9 52.2C1422.57 51.928 1423.15 51.512 1423.63 50.952L1424.59 52.056C1424.03 52.728 1423.32 53.24 1422.47 53.592C1421.64 53.944 1420.72 54.12 1419.71 54.12ZM1429.15 54V41.4H1430.85V46.968H1438.8V41.4H1440.5V54H1438.8V48.432H1430.85V54H1429.15ZM1445.35 54V41.4H1447.05V51.408L1455.47 41.4H1456.99V54H1455.28V43.968L1446.88 54H1445.35ZM1470.01 54V49.464L1470.32 49.824H1466.05C1464.43 49.824 1463.17 49.472 1462.25 48.768C1461.34 48.064 1460.89 47.04 1460.89 45.696C1460.89 44.256 1461.37 43.184 1462.35 42.48C1463.33 41.76 1464.63 41.4 1466.26 41.4H1471.57V54H1470.01ZM1460.79 54L1464.25 49.152H1466.02L1462.64 54H1460.79ZM1470.01 48.96V42.384L1470.32 42.888H1466.31C1465.14 42.888 1464.23 43.112 1463.57 43.56C1462.93 44.008 1462.61 44.736 1462.61 45.744C1462.61 47.616 1463.81 48.552 1466.19 48.552H1470.32L1470.01 48.96ZM1100.09 83.144C1099.06 83.144 1098.15 82.976 1097.35 82.64C1096.57 82.304 1095.9 81.792 1095.34 81.104C1094.78 80.416 1094.35 79.568 1094.06 78.56C1093.78 77.536 1093.63 76.352 1093.63 75.008C1093.63 73.808 1093.74 72.76 1093.97 71.864C1094.19 70.952 1094.5 70.168 1094.9 69.512C1095.3 68.856 1095.77 68.304 1096.3 67.856C1096.84 67.392 1097.42 67.024 1098.05 66.752C1098.69 66.464 1099.34 66.248 1100.02 66.104L1105.68 64.784L1105.97 66.368L1100.64 67.568C1100.3 67.648 1099.9 67.76 1099.42 67.904C1098.95 68.048 1098.47 68.264 1097.98 68.552C1097.5 68.84 1097.05 69.24 1096.63 69.752C1096.22 70.264 1095.88 70.928 1095.62 71.744C1095.38 72.544 1095.26 73.544 1095.26 74.744C1095.26 75 1095.27 75.208 1095.29 75.368C1095.3 75.512 1095.32 75.672 1095.34 75.848C1095.37 76.008 1095.39 76.248 1095.41 76.568L1094.66 75.944C1094.84 74.968 1095.2 74.12 1095.74 73.4C1096.29 72.664 1096.97 72.096 1097.78 71.696C1098.62 71.28 1099.54 71.072 1100.54 71.072C1101.71 71.072 1102.75 71.328 1103.66 71.84C1104.58 72.336 1105.29 73.032 1105.8 73.928C1106.33 74.824 1106.59 75.864 1106.59 77.048C1106.59 78.216 1106.32 79.264 1105.78 80.192C1105.25 81.12 1104.5 81.848 1103.52 82.376C1102.54 82.888 1101.4 83.144 1100.09 83.144ZM1100.28 81.728C1101.18 81.728 1101.97 81.528 1102.66 81.128C1103.34 80.712 1103.88 80.152 1104.26 79.448C1104.66 78.744 1104.86 77.952 1104.86 77.072C1104.86 76.208 1104.66 75.44 1104.26 74.768C1103.88 74.096 1103.34 73.568 1102.66 73.184C1101.97 72.784 1101.17 72.584 1100.26 72.584C1099.36 72.584 1098.57 72.776 1097.88 73.16C1097.19 73.528 1096.65 74.048 1096.25 74.72C1095.86 75.392 1095.67 76.168 1095.67 77.048C1095.67 77.928 1095.86 78.72 1096.25 79.424C1096.65 80.128 1097.19 80.688 1097.88 81.104C1098.58 81.52 1099.38 81.728 1100.28 81.728ZM1118 83V80.216L1117.93 79.76V75.104C1117.93 74.032 1117.62 73.208 1117.01 72.632C1116.42 72.056 1115.53 71.768 1114.35 71.768C1113.53 71.768 1112.76 71.904 1112.02 72.176C1111.29 72.448 1110.66 72.808 1110.15 73.256L1109.38 71.984C1110.02 71.44 1110.79 71.024 1111.69 70.736C1112.58 70.432 1113.53 70.28 1114.52 70.28C1116.15 70.28 1117.41 70.688 1118.29 71.504C1119.18 72.304 1119.63 73.528 1119.63 75.176V83H1118ZM1113.65 83.12C1112.71 83.12 1111.89 82.968 1111.18 82.664C1110.49 82.344 1109.97 81.912 1109.6 81.368C1109.23 80.808 1109.05 80.168 1109.05 79.448C1109.05 78.792 1109.2 78.2 1109.5 77.672C1109.82 77.128 1110.33 76.696 1111.04 76.376C1111.76 76.04 1112.72 75.872 1113.92 75.872H1118.26V77.144H1113.97C1112.75 77.144 1111.9 77.36 1111.42 77.792C1110.96 78.224 1110.73 78.76 1110.73 79.4C1110.73 80.12 1111.01 80.696 1111.57 81.128C1112.13 81.56 1112.91 81.776 1113.92 81.776C1114.88 81.776 1115.7 81.56 1116.39 81.128C1117.09 80.68 1117.61 80.04 1117.93 79.208L1118.31 80.384C1117.99 81.216 1117.43 81.88 1116.63 82.376C1115.85 82.872 1114.85 83.12 1113.65 83.12ZM1127.29 83.144C1126.38 83.144 1125.48 83.016 1124.58 82.76C1123.68 82.504 1122.89 82.112 1122.2 81.584L1122.76 80.312C1123.36 80.76 1124.07 81.104 1124.87 81.344C1125.67 81.568 1126.46 81.68 1127.24 81.68C1128.03 81.664 1128.71 81.552 1129.28 81.344C1129.86 81.136 1130.31 80.848 1130.63 80.48C1130.95 80.112 1131.11 79.696 1131.11 79.232C1131.11 78.56 1130.8 78.04 1130.2 77.672C1129.59 77.288 1128.76 77.096 1127.7 77.096H1125.54V75.848H1127.58C1128.2 75.848 1128.76 75.768 1129.24 75.608C1129.72 75.448 1130.08 75.216 1130.34 74.912C1130.61 74.608 1130.75 74.248 1130.75 73.832C1130.75 73.384 1130.59 73 1130.27 72.68C1129.96 72.36 1129.54 72.12 1129 71.96C1128.45 71.8 1127.84 71.72 1127.15 71.72C1126.52 71.736 1125.88 71.832 1125.2 72.008C1124.53 72.168 1123.87 72.416 1123.21 72.752L1122.73 71.432C1123.47 71.048 1124.2 70.76 1124.92 70.568C1125.65 70.36 1126.39 70.256 1127.12 70.256C1128.13 70.224 1129.04 70.344 1129.84 70.616C1130.65 70.888 1131.3 71.28 1131.78 71.792C1132.26 72.288 1132.5 72.888 1132.5 73.592C1132.5 74.216 1132.31 74.76 1131.92 75.224C1131.54 75.688 1131.03 76.048 1130.39 76.304C1129.75 76.56 1129.02 76.688 1128.2 76.688L1128.28 76.232C1129.72 76.232 1130.84 76.512 1131.64 77.072C1132.45 77.632 1132.86 78.392 1132.86 79.352C1132.86 80.104 1132.61 80.768 1132.12 81.344C1131.62 81.904 1130.95 82.344 1130.1 82.664C1129.27 82.984 1128.33 83.144 1127.29 83.144ZM1141.91 83.12C1140.7 83.12 1139.6 82.848 1138.62 82.304C1137.66 81.744 1136.9 80.984 1136.34 80.024C1135.78 79.048 1135.5 77.936 1135.5 76.688C1135.5 75.424 1135.78 74.312 1136.34 73.352C1136.9 72.392 1137.66 71.64 1138.62 71.096C1139.58 70.552 1140.68 70.28 1141.91 70.28C1143.16 70.28 1144.26 70.552 1145.22 71.096C1146.2 71.64 1146.96 72.392 1147.5 73.352C1148.06 74.312 1148.34 75.424 1148.34 76.688C1148.34 77.936 1148.06 79.048 1147.5 80.024C1146.96 80.984 1146.2 81.744 1145.22 82.304C1144.25 82.848 1143.14 83.12 1141.91 83.12ZM1141.91 81.608C1142.82 81.608 1143.63 81.408 1144.34 81.008C1145.04 80.592 1145.59 80.016 1145.99 79.28C1146.41 78.528 1146.62 77.664 1146.62 76.688C1146.62 75.696 1146.41 74.832 1145.99 74.096C1145.59 73.36 1145.04 72.792 1144.34 72.392C1143.63 71.976 1142.83 71.768 1141.94 71.768C1141.04 71.768 1140.24 71.976 1139.54 72.392C1138.83 72.792 1138.27 73.36 1137.86 74.096C1137.44 74.832 1137.23 75.696 1137.23 76.688C1137.23 77.664 1137.44 78.528 1137.86 79.28C1138.27 80.016 1138.83 80.592 1139.54 81.008C1140.24 81.408 1141.03 81.608 1141.91 81.608ZM1151.99 83V70.4H1153.69V80.408L1162.11 70.4H1163.63V83H1161.92V72.968L1153.52 83H1151.99ZM1157.7 68.576C1156.64 68.576 1155.79 68.312 1155.13 67.784C1154.49 67.24 1154.15 66.464 1154.12 65.456H1155.35C1155.36 66.096 1155.59 66.6 1156.02 66.968C1156.45 67.336 1157.01 67.52 1157.7 67.52C1158.39 67.52 1158.95 67.336 1159.38 66.968C1159.83 66.6 1160.06 66.096 1160.07 65.456H1161.3C1161.28 66.464 1160.95 67.24 1160.29 67.784C1159.63 68.312 1158.77 68.576 1157.7 68.576ZM1177.74 83V70.4H1179.47L1185.18 80.072H1184.46L1190.27 70.4H1191.85V83H1190.29V72.344L1190.61 72.488L1185.18 81.464H1184.41L1178.94 72.392L1179.3 72.32V83H1177.74ZM1202.1 83.12C1200.79 83.12 1199.64 82.848 1198.65 82.304C1197.65 81.744 1196.88 80.984 1196.32 80.024C1195.76 79.048 1195.48 77.936 1195.48 76.688C1195.48 75.44 1195.74 74.336 1196.27 73.376C1196.81 72.416 1197.55 71.664 1198.48 71.12C1199.42 70.56 1200.48 70.28 1201.65 70.28C1202.83 70.28 1203.88 70.552 1204.79 71.096C1205.72 71.624 1206.45 72.376 1206.97 73.352C1207.5 74.312 1207.77 75.424 1207.77 76.688C1207.77 76.768 1207.76 76.856 1207.74 76.952C1207.74 77.032 1207.74 77.12 1207.74 77.216H1196.77V75.944H1206.83L1206.16 76.448C1206.16 75.536 1205.96 74.728 1205.56 74.024C1205.17 73.304 1204.65 72.744 1203.97 72.344C1203.3 71.944 1202.53 71.744 1201.65 71.744C1200.78 71.744 1200.01 71.944 1199.32 72.344C1198.63 72.744 1198.09 73.304 1197.71 74.024C1197.33 74.744 1197.13 75.568 1197.13 76.496V76.76C1197.13 77.72 1197.34 78.568 1197.76 79.304C1198.19 80.024 1198.78 80.592 1199.53 81.008C1200.3 81.408 1201.17 81.608 1202.15 81.608C1202.92 81.608 1203.63 81.472 1204.29 81.2C1204.96 80.928 1205.53 80.512 1206.01 79.952L1206.97 81.056C1206.41 81.728 1205.71 82.24 1204.86 82.592C1204.03 82.944 1203.11 83.12 1202.1 83.12ZM1219.92 82.184V71.888H1213.85L1213.7 74.696C1213.67 75.544 1213.62 76.376 1213.54 77.192C1213.47 78.008 1213.35 78.76 1213.18 79.448C1213.02 80.12 1212.78 80.672 1212.48 81.104C1212.18 81.52 1211.78 81.76 1211.3 81.824L1209.6 81.512C1210.1 81.528 1210.5 81.352 1210.82 80.984C1211.14 80.6 1211.39 80.08 1211.57 79.424C1211.74 78.768 1211.87 78.024 1211.95 77.192C1212.03 76.344 1212.1 75.48 1212.14 74.6L1212.31 70.4H1221.62V82.184H1219.92ZM1209.07 86.048V81.512H1223.59V86.048H1221.98V83H1210.68V86.048H1209.07ZM1226.91 83V70.4H1228.62V80.408L1237.04 70.4H1238.55V83H1236.85V72.968L1228.45 83H1226.91ZM1243.44 83V70.4H1245.14V81.512H1252.85V70.4H1254.55V83H1243.44ZM1254.98 86.048V82.856L1255.41 83H1252.85V81.512H1256.59V86.048H1254.98ZM1259.84 83V70.4H1261.55V80.408L1269.97 70.4H1271.48V83H1269.78V72.968L1261.38 83H1259.84ZM1276.37 83V70.4H1278.07V75.968H1286.01V70.4H1287.72V83H1286.01V77.432H1278.07V83H1276.37ZM1297.84 83.12C1296.59 83.12 1295.47 82.848 1294.48 82.304C1293.51 81.744 1292.74 80.984 1292.18 80.024C1291.62 79.048 1291.34 77.936 1291.34 76.688C1291.34 75.424 1291.62 74.312 1292.18 73.352C1292.74 72.392 1293.51 71.64 1294.48 71.096C1295.47 70.552 1296.59 70.28 1297.84 70.28C1298.91 70.28 1299.88 70.488 1300.75 70.904C1301.61 71.32 1302.29 71.944 1302.79 72.776L1301.51 73.64C1301.08 73 1300.55 72.528 1299.91 72.224C1299.27 71.92 1298.57 71.768 1297.82 71.768C1296.92 71.768 1296.11 71.976 1295.39 72.392C1294.67 72.792 1294.11 73.36 1293.69 74.096C1293.27 74.832 1293.07 75.696 1293.07 76.688C1293.07 77.68 1293.27 78.544 1293.69 79.28C1294.11 80.016 1294.67 80.592 1295.39 81.008C1296.11 81.408 1296.92 81.608 1297.82 81.608C1298.57 81.608 1299.27 81.456 1299.91 81.152C1300.55 80.848 1301.08 80.384 1301.51 79.76L1302.79 80.624C1302.29 81.44 1301.61 82.064 1300.75 82.496C1299.88 82.912 1298.91 83.12 1297.84 83.12ZM1315.33 83L1310.14 76.76L1311.56 75.92L1317.34 83H1315.33ZM1306.09 83V70.4H1307.79V83H1306.09ZM1307.26 77.384V75.92H1311.32V77.384H1307.26ZM1311.7 76.88L1310.12 76.64L1315.13 70.4H1316.98L1311.7 76.88ZM1320.03 83V70.4H1321.73V80.408L1330.16 70.4H1331.67V83H1329.97V72.968L1321.57 83H1320.03ZM1334.49 83L1339.82 76.088L1339.79 76.928L1334.73 70.4H1336.65L1340.8 75.8L1340.08 75.776L1344.23 70.4H1346.11L1340.99 77L1341.02 76.088L1346.39 83H1344.45L1340.06 77.24L1340.73 77.336L1336.41 83H1334.49ZM1361.8 83.144C1360.89 83.144 1359.99 83.016 1359.09 82.76C1358.19 82.504 1357.4 82.112 1356.71 81.584L1357.27 80.312C1357.87 80.76 1358.58 81.104 1359.38 81.344C1360.18 81.568 1360.97 81.68 1361.75 81.68C1362.54 81.664 1363.22 81.552 1363.79 81.344C1364.37 81.136 1364.82 80.848 1365.14 80.48C1365.46 80.112 1365.62 79.696 1365.62 79.232C1365.62 78.56 1365.31 78.04 1364.71 77.672C1364.1 77.288 1363.27 77.096 1362.21 77.096H1360.05V75.848H1362.09C1362.71 75.848 1363.27 75.768 1363.75 75.608C1364.23 75.448 1364.59 75.216 1364.85 74.912C1365.12 74.608 1365.26 74.248 1365.26 73.832C1365.26 73.384 1365.1 73 1364.78 72.68C1364.47 72.36 1364.05 72.12 1363.51 71.96C1362.96 71.8 1362.35 71.72 1361.66 71.72C1361.03 71.736 1360.39 71.832 1359.71 72.008C1359.04 72.168 1358.38 72.416 1357.72 72.752L1357.24 71.432C1357.98 71.048 1358.71 70.76 1359.43 70.568C1360.16 70.36 1360.9 70.256 1361.63 70.256C1362.64 70.224 1363.55 70.344 1364.35 70.616C1365.16 70.888 1365.81 71.28 1366.29 71.792C1366.77 72.288 1367.01 72.888 1367.01 73.592C1367.01 74.216 1366.82 74.76 1366.43 75.224C1366.05 75.688 1365.54 76.048 1364.9 76.304C1364.26 76.56 1363.53 76.688 1362.71 76.688L1362.79 76.232C1364.23 76.232 1365.35 76.512 1366.15 77.072C1366.96 77.632 1367.37 78.392 1367.37 79.352C1367.37 80.104 1367.12 80.768 1366.63 81.344C1366.13 81.904 1365.46 82.344 1364.61 82.664C1363.78 82.984 1362.84 83.144 1361.8 83.144ZM1371.24 83V70.4H1372.94V75.968H1380.89V70.4H1382.59V83H1380.89V77.432H1372.94V83H1371.24ZM1395.26 83V80.216L1395.19 79.76V75.104C1395.19 74.032 1394.88 73.208 1394.27 72.632C1393.68 72.056 1392.79 71.768 1391.61 71.768C1390.79 71.768 1390.02 71.904 1389.28 72.176C1388.55 72.448 1387.92 72.808 1387.41 73.256L1386.64 71.984C1387.28 71.44 1388.05 71.024 1388.95 70.736C1389.84 70.432 1390.79 70.28 1391.78 70.28C1393.41 70.28 1394.67 70.688 1395.55 71.504C1396.44 72.304 1396.89 73.528 1396.89 75.176V83H1395.26ZM1390.91 83.12C1389.97 83.12 1389.15 82.968 1388.44 82.664C1387.75 82.344 1387.23 81.912 1386.86 81.368C1386.49 80.808 1386.31 80.168 1386.31 79.448C1386.31 78.792 1386.46 78.2 1386.76 77.672C1387.08 77.128 1387.59 76.696 1388.3 76.376C1389.02 76.04 1389.98 75.872 1391.18 75.872H1395.52V77.144H1391.23C1390.01 77.144 1389.16 77.36 1388.68 77.792C1388.22 78.224 1387.99 78.76 1387.99 79.4C1387.99 80.12 1388.27 80.696 1388.83 81.128C1389.39 81.56 1390.17 81.776 1391.18 81.776C1392.14 81.776 1392.96 81.56 1393.65 81.128C1394.35 80.68 1394.87 80.04 1395.19 79.208L1395.57 80.384C1395.25 81.216 1394.69 81.88 1393.89 82.376C1393.11 82.872 1392.11 83.12 1390.91 83.12ZM1401.43 83V70.4H1403.13V75.968H1411.07V70.4H1412.78V83H1411.07V77.432H1403.13V83H1401.43ZM1417.62 83V70.4H1419.33V80.408L1427.75 70.4H1429.26V83H1427.56V72.968L1419.16 83H1417.62ZM1434.15 83V70.4H1435.85V80.408L1444.27 70.4H1445.79V83H1444.08V72.968L1435.68 83H1434.15ZM1439.86 68.576C1438.8 68.576 1437.95 68.312 1437.29 67.784C1436.65 67.24 1436.31 66.464 1436.28 65.456H1437.51C1437.52 66.096 1437.75 66.6 1438.18 66.968C1438.61 67.336 1439.17 67.52 1439.86 67.52C1440.55 67.52 1441.11 67.336 1441.54 66.968C1441.99 66.6 1442.22 66.096 1442.23 65.456H1443.46C1443.44 66.464 1443.11 67.24 1442.45 67.784C1441.79 68.312 1440.93 68.576 1439.86 68.576ZM1459.9 83V70.4H1461.6V80.408L1470.03 70.4H1471.54V83H1469.84V72.968L1461.44 83H1459.9ZM1099.7 112.12C1098.46 112.12 1097.34 111.848 1096.34 111.304C1095.37 110.744 1094.6 109.984 1094.04 109.024C1093.48 108.048 1093.2 106.936 1093.2 105.688C1093.2 104.424 1093.48 103.312 1094.04 102.352C1094.6 101.392 1095.37 100.64 1096.34 100.096C1097.34 99.552 1098.46 99.28 1099.7 99.28C1100.78 99.28 1101.74 99.488 1102.61 99.904C1103.47 100.32 1104.15 100.944 1104.65 101.776L1103.38 102.64C1102.94 102 1102.41 101.528 1101.77 101.224C1101.13 100.92 1100.43 100.768 1099.68 100.768C1098.78 100.768 1097.98 100.976 1097.26 101.392C1096.54 101.792 1095.97 102.36 1095.55 103.096C1095.14 103.832 1094.93 104.696 1094.93 105.688C1094.93 106.68 1095.14 107.544 1095.55 108.28C1095.97 109.016 1096.54 109.592 1097.26 110.008C1097.98 110.408 1098.78 110.608 1099.68 110.608C1100.43 110.608 1101.13 110.456 1101.77 110.152C1102.41 109.848 1102.94 109.384 1103.38 108.76L1104.65 109.624C1104.15 110.44 1103.47 111.064 1102.61 111.496C1101.74 111.912 1100.78 112.12 1099.7 112.12ZM1112.92 112.12C1111.7 112.12 1110.61 111.848 1109.63 111.304C1108.67 110.744 1107.91 109.984 1107.35 109.024C1106.79 108.048 1106.51 106.936 1106.51 105.688C1106.51 104.424 1106.79 103.312 1107.35 102.352C1107.91 101.392 1108.67 100.64 1109.63 100.096C1110.59 99.552 1111.69 99.28 1112.92 99.28C1114.17 99.28 1115.27 99.552 1116.23 100.096C1117.21 100.64 1117.97 101.392 1118.51 102.352C1119.07 103.312 1119.35 104.424 1119.35 105.688C1119.35 106.936 1119.07 108.048 1118.51 109.024C1117.97 109.984 1117.21 110.744 1116.23 111.304C1115.26 111.848 1114.15 112.12 1112.92 112.12ZM1112.92 110.608C1113.83 110.608 1114.64 110.408 1115.34 110.008C1116.05 109.592 1116.6 109.016 1117 108.28C1117.42 107.528 1117.62 106.664 1117.62 105.688C1117.62 104.696 1117.42 103.832 1117 103.096C1116.6 102.36 1116.05 101.792 1115.34 101.392C1114.64 100.976 1113.84 100.768 1112.94 100.768C1112.05 100.768 1111.25 100.976 1110.54 101.392C1109.84 101.792 1109.28 102.36 1108.86 103.096C1108.45 103.832 1108.24 104.696 1108.24 105.688C1108.24 106.664 1108.45 107.528 1108.86 108.28C1109.28 109.016 1109.84 109.592 1110.54 110.008C1111.25 110.408 1112.04 110.608 1112.92 110.608ZM1126.28 112.144C1125.37 112.144 1124.47 112.016 1123.57 111.76C1122.68 111.504 1121.88 111.112 1121.2 110.584L1121.75 109.312C1122.36 109.76 1123.06 110.104 1123.86 110.344C1124.66 110.568 1125.45 110.68 1126.24 110.68C1127.02 110.664 1127.7 110.552 1128.28 110.344C1128.85 110.136 1129.3 109.848 1129.62 109.48C1129.94 109.112 1130.1 108.696 1130.1 108.232C1130.1 107.56 1129.8 107.04 1129.19 106.672C1128.58 106.288 1127.75 106.096 1126.69 106.096H1124.53V104.848H1126.57C1127.2 104.848 1127.75 104.768 1128.23 104.608C1128.71 104.448 1129.08 104.216 1129.33 103.912C1129.6 103.608 1129.74 103.248 1129.74 102.832C1129.74 102.384 1129.58 102 1129.26 101.68C1128.96 101.36 1128.53 101.12 1127.99 100.96C1127.44 100.8 1126.83 100.72 1126.14 100.72C1125.52 100.736 1124.87 100.832 1124.2 101.008C1123.52 101.168 1122.86 101.416 1122.2 101.752L1121.72 100.432C1122.46 100.048 1123.19 99.76 1123.91 99.568C1124.64 99.36 1125.38 99.256 1126.12 99.256C1127.12 99.224 1128.03 99.344 1128.83 99.616C1129.64 99.888 1130.29 100.28 1130.77 100.792C1131.25 101.288 1131.49 101.888 1131.49 102.592C1131.49 103.216 1131.3 103.76 1130.92 104.224C1130.53 104.688 1130.02 105.048 1129.38 105.304C1128.74 105.56 1128.01 105.688 1127.2 105.688L1127.27 105.232C1128.71 105.232 1129.83 105.512 1130.63 106.072C1131.44 106.632 1131.85 107.392 1131.85 108.352C1131.85 109.104 1131.6 109.768 1131.11 110.344C1130.61 110.904 1129.94 111.344 1129.09 111.664C1128.26 111.984 1127.32 112.144 1126.28 112.144ZM1144.36 111.184V100.888H1138.29L1138.14 103.696C1138.11 104.544 1138.06 105.376 1137.98 106.192C1137.91 107.008 1137.79 107.76 1137.62 108.448C1137.46 109.12 1137.22 109.672 1136.92 110.104C1136.62 110.52 1136.22 110.76 1135.74 110.824L1134.04 110.512C1134.54 110.528 1134.94 110.352 1135.26 109.984C1135.58 109.6 1135.83 109.08 1136.01 108.424C1136.18 107.768 1136.31 107.024 1136.39 106.192C1136.47 105.344 1136.54 104.48 1136.58 103.6L1136.75 99.4H1146.06V111.184H1144.36ZM1133.51 115.048V110.512H1148.03V115.048H1146.42V112H1135.12V115.048H1133.51ZM1159.18 112V109.216L1159.11 108.76V104.104C1159.11 103.032 1158.8 102.208 1158.19 101.632C1157.6 101.056 1156.71 100.768 1155.53 100.768C1154.71 100.768 1153.94 100.904 1153.2 101.176C1152.47 101.448 1151.84 101.808 1151.33 102.256L1150.56 100.984C1151.2 100.44 1151.97 100.024 1152.87 99.736C1153.76 99.432 1154.71 99.28 1155.7 99.28C1157.33 99.28 1158.59 99.688 1159.47 100.504C1160.36 101.304 1160.81 102.528 1160.81 104.176V112H1159.18ZM1154.83 112.12C1153.89 112.12 1153.07 111.968 1152.36 111.664C1151.67 111.344 1151.15 110.912 1150.78 110.368C1150.41 109.808 1150.23 109.168 1150.23 108.448C1150.23 107.792 1150.38 107.2 1150.68 106.672C1151 106.128 1151.51 105.696 1152.22 105.376C1152.94 105.04 1153.9 104.872 1155.1 104.872H1159.44V106.144H1155.15C1153.93 106.144 1153.08 106.36 1152.6 106.792C1152.14 107.224 1151.91 107.76 1151.91 108.4C1151.91 109.12 1152.19 109.696 1152.75 110.128C1153.31 110.56 1154.09 110.776 1155.1 110.776C1156.06 110.776 1156.88 110.56 1157.57 110.128C1158.27 109.68 1158.79 109.04 1159.11 108.208L1159.49 109.384C1159.17 110.216 1158.61 110.88 1157.81 111.376C1157.03 111.872 1156.03 112.12 1154.83 112.12ZM1165.35 112V99.4H1167.05V104.968H1174.99V99.4H1176.7V112H1174.99V106.432H1167.05V112H1165.35ZM1181.54 112V99.4H1183.25V109.408L1191.67 99.4H1193.18V112H1191.48V101.968L1183.08 112H1181.54ZM1206.2 112V107.464L1206.51 107.824H1202.24C1200.62 107.824 1199.36 107.472 1198.45 106.768C1197.54 106.064 1197.08 105.04 1197.08 103.696C1197.08 102.256 1197.57 101.184 1198.54 100.48C1199.52 99.76 1200.82 99.4 1202.46 99.4H1207.76V112H1206.2ZM1196.98 112L1200.44 107.152H1202.22L1198.83 112H1196.98ZM1206.2 106.96V100.384L1206.51 100.888H1202.5C1201.34 100.888 1200.42 101.112 1199.77 101.56C1199.13 102.008 1198.81 102.736 1198.81 103.744C1198.81 105.616 1200 106.552 1202.38 106.552H1206.51L1206.2 106.96ZM1234.3 112.12C1233.21 112.12 1232.22 111.872 1231.34 111.376C1230.46 110.864 1229.76 110.136 1229.23 109.192C1228.72 108.232 1228.46 107.064 1228.46 105.688C1228.46 104.312 1228.72 103.152 1229.23 102.208C1229.74 101.248 1230.44 100.52 1231.32 100.024C1232.2 99.528 1233.19 99.28 1234.3 99.28C1235.5 99.28 1236.57 99.552 1237.51 100.096C1238.47 100.624 1239.22 101.376 1239.77 102.352C1240.31 103.312 1240.58 104.424 1240.58 105.688C1240.58 106.968 1240.31 108.088 1239.77 109.048C1239.22 110.008 1238.47 110.76 1237.51 111.304C1236.57 111.848 1235.5 112.12 1234.3 112.12ZM1227.79 116.656V99.4H1229.42V103.192L1229.26 105.712L1229.5 108.256V116.656H1227.79ZM1234.18 110.608C1235.07 110.608 1235.87 110.408 1236.58 110.008C1237.28 109.592 1237.84 109.016 1238.26 108.28C1238.67 107.528 1238.88 106.664 1238.88 105.688C1238.88 104.712 1238.67 103.856 1238.26 103.12C1237.84 102.384 1237.28 101.808 1236.58 101.392C1235.87 100.976 1235.07 100.768 1234.18 100.768C1233.28 100.768 1232.47 100.976 1231.75 101.392C1231.05 101.808 1230.49 102.384 1230.07 103.12C1229.67 103.856 1229.47 104.712 1229.47 105.688C1229.47 106.664 1229.67 107.528 1230.07 108.28C1230.49 109.016 1231.05 109.592 1231.75 110.008C1232.47 110.408 1233.28 110.608 1234.18 110.608ZM1252 112V109.216L1251.93 108.76V104.104C1251.93 103.032 1251.62 102.208 1251.01 101.632C1250.42 101.056 1249.53 100.768 1248.35 100.768C1247.53 100.768 1246.76 100.904 1246.02 101.176C1245.29 101.448 1244.66 101.808 1244.15 102.256L1243.38 100.984C1244.02 100.44 1244.79 100.024 1245.69 99.736C1246.58 99.432 1247.53 99.28 1248.52 99.28C1250.15 99.28 1251.41 99.688 1252.29 100.504C1253.18 101.304 1253.63 102.528 1253.63 104.176V112H1252ZM1247.65 112.12C1246.71 112.12 1245.89 111.968 1245.18 111.664C1244.49 111.344 1243.97 110.912 1243.6 110.368C1243.23 109.808 1243.05 109.168 1243.05 108.448C1243.05 107.792 1243.2 107.2 1243.5 106.672C1243.82 106.128 1244.33 105.696 1245.04 105.376C1245.76 105.04 1246.72 104.872 1247.92 104.872H1252.26V106.144H1247.97C1246.75 106.144 1245.9 106.36 1245.42 106.792C1244.96 107.224 1244.73 107.76 1244.73 108.4C1244.73 109.12 1245.01 109.696 1245.57 110.128C1246.13 110.56 1246.91 110.776 1247.92 110.776C1248.88 110.776 1249.7 110.56 1250.39 110.128C1251.09 109.68 1251.61 109.04 1251.93 108.208L1252.31 109.384C1251.99 110.216 1251.43 110.88 1250.63 111.376C1249.85 111.872 1248.85 112.12 1247.65 112.12ZM1263.83 112.144C1262.81 112.144 1261.89 111.976 1261.09 111.64C1260.31 111.304 1259.64 110.792 1259.08 110.104C1258.52 109.416 1258.09 108.568 1257.81 107.56C1257.52 106.536 1257.37 105.352 1257.37 104.008C1257.37 102.808 1257.49 101.76 1257.71 100.864C1257.93 99.952 1258.25 99.168 1258.65 98.512C1259.05 97.856 1259.51 97.304 1260.04 96.856C1260.58 96.392 1261.17 96.024 1261.79 95.752C1262.43 95.464 1263.09 95.248 1263.76 95.104L1269.42 93.784L1269.71 95.368L1264.38 96.568C1264.05 96.648 1263.64 96.76 1263.16 96.904C1262.69 97.048 1262.21 97.264 1261.72 97.552C1261.24 97.84 1260.79 98.24 1260.37 98.752C1259.96 99.264 1259.62 99.928 1259.37 100.744C1259.13 101.544 1259.01 102.544 1259.01 103.744C1259.01 104 1259.01 104.208 1259.03 104.368C1259.05 104.512 1259.06 104.672 1259.08 104.848C1259.11 105.008 1259.13 105.248 1259.15 105.568L1258.41 104.944C1258.58 103.968 1258.94 103.12 1259.49 102.4C1260.03 101.664 1260.71 101.096 1261.53 100.696C1262.36 100.28 1263.28 100.072 1264.29 100.072C1265.45 100.072 1266.49 100.328 1267.41 100.84C1268.32 101.336 1269.03 102.032 1269.54 102.928C1270.07 103.824 1270.33 104.864 1270.33 106.048C1270.33 107.216 1270.06 108.264 1269.52 109.192C1268.99 110.12 1268.24 110.848 1267.26 111.376C1266.29 111.888 1265.14 112.144 1263.83 112.144ZM1264.02 110.728C1264.92 110.728 1265.71 110.528 1266.4 110.128C1267.09 109.712 1267.62 109.152 1268.01 108.448C1268.41 107.744 1268.61 106.952 1268.61 106.072C1268.61 105.208 1268.41 104.44 1268.01 103.768C1267.62 103.096 1267.09 102.568 1266.4 102.184C1265.71 101.784 1264.91 101.584 1264 101.584C1263.1 101.584 1262.31 101.776 1261.62 102.16C1260.93 102.528 1260.39 103.048 1259.99 103.72C1259.61 104.392 1259.41 105.168 1259.41 106.048C1259.41 106.928 1259.61 107.72 1259.99 108.424C1260.39 109.128 1260.93 109.688 1261.62 110.104C1262.33 110.52 1263.13 110.728 1264.02 110.728ZM1279.17 112.12C1277.95 112.12 1276.86 111.848 1275.88 111.304C1274.92 110.744 1274.16 109.984 1273.6 109.024C1273.04 108.048 1272.76 106.936 1272.76 105.688C1272.76 104.424 1273.04 103.312 1273.6 102.352C1274.16 101.392 1274.92 100.64 1275.88 100.096C1276.84 99.552 1277.94 99.28 1279.17 99.28C1280.42 99.28 1281.52 99.552 1282.48 100.096C1283.46 100.64 1284.22 101.392 1284.76 102.352C1285.32 103.312 1285.6 104.424 1285.6 105.688C1285.6 106.936 1285.32 108.048 1284.76 109.024C1284.22 109.984 1283.46 110.744 1282.48 111.304C1281.51 111.848 1280.4 112.12 1279.17 112.12ZM1279.17 110.608C1280.08 110.608 1280.89 110.408 1281.59 110.008C1282.3 109.592 1282.85 109.016 1283.25 108.28C1283.67 107.528 1283.87 106.664 1283.87 105.688C1283.87 104.696 1283.67 103.832 1283.25 103.096C1282.85 102.36 1282.3 101.792 1281.59 101.392C1280.89 100.976 1280.09 100.768 1279.19 100.768C1278.3 100.768 1277.5 100.976 1276.79 101.392C1276.09 101.792 1275.53 102.36 1275.11 103.096C1274.7 103.832 1274.49 104.696 1274.49 105.688C1274.49 106.664 1274.7 107.528 1275.11 108.28C1275.53 109.016 1276.09 109.592 1276.79 110.008C1277.5 110.408 1278.29 110.608 1279.17 110.608ZM1297.21 106.672C1296.48 106.992 1295.73 107.248 1294.98 107.44C1294.24 107.616 1293.51 107.704 1292.77 107.704C1291.28 107.704 1290.11 107.368 1289.24 106.696C1288.38 106.008 1287.95 104.952 1287.95 103.528V99.4H1289.63V103.432C1289.63 104.392 1289.94 105.112 1290.56 105.592C1291.19 106.072 1292.03 106.312 1293.08 106.312C1293.72 106.312 1294.4 106.232 1295.1 106.072C1295.8 105.896 1296.52 105.648 1297.24 105.328L1297.21 106.672ZM1297.07 112V99.4H1298.77V112H1297.07ZM1303.61 112V99.4H1305.32V109.408L1313.74 99.4H1315.25V112H1313.55V101.968L1305.15 112H1303.61ZM1318.07 112L1323.4 105.088L1323.37 105.928L1318.31 99.4H1320.23L1324.38 104.8L1323.66 104.776L1327.81 99.4H1329.69L1324.57 106L1324.6 105.088L1329.97 112H1328.03L1323.64 106.24L1324.31 106.336L1319.99 112H1318.07ZM1356.22 110.512L1355.84 110.968V99.4H1357.54V110.968L1357.08 110.512H1364.12L1363.66 110.968V99.4H1365.36V112H1347.94V99.4H1349.64V110.968L1349.21 110.512H1356.22ZM1378.03 112V109.216L1377.96 108.76V104.104C1377.96 103.032 1377.65 102.208 1377.05 101.632C1376.45 101.056 1375.57 100.768 1374.38 100.768C1373.57 100.768 1372.79 100.904 1372.05 101.176C1371.32 101.448 1370.69 101.808 1370.18 102.256L1369.41 100.984C1370.05 100.44 1370.82 100.024 1371.72 99.736C1372.61 99.432 1373.56 99.28 1374.55 99.28C1376.18 99.28 1377.44 99.688 1378.32 100.504C1379.21 101.304 1379.66 102.528 1379.66 104.176V112H1378.03ZM1373.69 112.12C1372.74 112.12 1371.92 111.968 1371.21 111.664C1370.53 111.344 1370 110.912 1369.63 110.368C1369.26 109.808 1369.08 109.168 1369.08 108.448C1369.08 107.792 1369.23 107.2 1369.53 106.672C1369.85 106.128 1370.37 105.696 1371.07 105.376C1371.79 105.04 1372.75 104.872 1373.95 104.872H1378.29V106.144H1374C1372.78 106.144 1371.93 106.36 1371.45 106.792C1370.99 107.224 1370.76 107.76 1370.76 108.4C1370.76 109.12 1371.04 109.696 1371.6 110.128C1372.16 110.56 1372.94 110.776 1373.95 110.776C1374.91 110.776 1375.73 110.56 1376.42 110.128C1377.13 109.68 1377.64 109.04 1377.96 108.208L1378.34 109.384C1378.02 110.216 1377.46 110.88 1376.66 111.376C1375.88 111.872 1374.89 112.12 1373.69 112.12ZM1389.86 112.144C1388.84 112.144 1387.93 111.976 1387.13 111.64C1386.34 111.304 1385.67 110.792 1385.11 110.104C1384.55 109.416 1384.13 108.568 1383.84 107.56C1383.55 106.536 1383.41 105.352 1383.41 104.008C1383.41 102.808 1383.52 101.76 1383.74 100.864C1383.97 99.952 1384.28 99.168 1384.68 98.512C1385.08 97.856 1385.54 97.304 1386.07 96.856C1386.61 96.392 1387.2 96.024 1387.82 95.752C1388.46 95.464 1389.12 95.248 1389.79 95.104L1395.45 93.784L1395.74 95.368L1390.41 96.568C1390.08 96.648 1389.67 96.76 1389.19 96.904C1388.73 97.048 1388.25 97.264 1387.75 97.552C1387.27 97.84 1386.82 98.24 1386.41 98.752C1385.99 99.264 1385.65 99.928 1385.4 100.744C1385.16 101.544 1385.04 102.544 1385.04 103.744C1385.04 104 1385.05 104.208 1385.06 104.368C1385.08 104.512 1385.09 104.672 1385.11 104.848C1385.14 105.008 1385.17 105.248 1385.18 105.568L1384.44 104.944C1384.61 103.968 1384.97 103.12 1385.52 102.4C1386.06 101.664 1386.74 101.096 1387.56 100.696C1388.39 100.28 1389.31 100.072 1390.32 100.072C1391.49 100.072 1392.53 100.328 1393.44 100.84C1394.35 101.336 1395.06 102.032 1395.57 102.928C1396.1 103.824 1396.37 104.864 1396.37 106.048C1396.37 107.216 1396.09 108.264 1395.55 109.192C1395.02 110.12 1394.27 110.848 1393.29 111.376C1392.32 111.888 1391.17 112.144 1389.86 112.144ZM1390.05 110.728C1390.95 110.728 1391.74 110.528 1392.43 110.128C1393.12 109.712 1393.65 109.152 1394.04 108.448C1394.44 107.744 1394.64 106.952 1394.64 106.072C1394.64 105.208 1394.44 104.44 1394.04 103.768C1393.65 103.096 1393.12 102.568 1392.43 102.184C1391.74 101.784 1390.94 101.584 1390.03 101.584C1389.13 101.584 1388.34 101.776 1387.65 102.16C1386.97 102.528 1386.42 103.048 1386.02 103.72C1385.64 104.392 1385.45 105.168 1385.45 106.048C1385.45 106.928 1385.64 107.72 1386.02 108.424C1386.42 109.128 1386.97 109.688 1387.65 110.104C1388.36 110.52 1389.16 110.728 1390.05 110.728ZM1397.64 111.976L1397.76 110.512C1397.88 110.528 1397.98 110.552 1398.08 110.584C1398.19 110.6 1398.28 110.608 1398.36 110.608C1398.88 110.608 1399.28 110.416 1399.59 110.032C1399.91 109.648 1400.15 109.136 1400.31 108.496C1400.47 107.856 1400.58 107.136 1400.64 106.336C1400.71 105.52 1400.76 104.704 1400.81 103.888L1401.03 99.4H1410.27V112H1408.56V100.384L1409 100.888H1402.13L1402.54 100.36L1402.35 104.008C1402.3 105.096 1402.21 106.136 1402.08 107.128C1401.97 108.12 1401.79 108.992 1401.53 109.744C1401.29 110.496 1400.96 111.088 1400.52 111.52C1400.09 111.936 1399.54 112.144 1398.87 112.144C1398.68 112.144 1398.48 112.128 1398.27 112.096C1398.08 112.064 1397.87 112.024 1397.64 111.976ZM1420.3 112.12C1419.08 112.12 1417.98 111.848 1417.01 111.304C1416.05 110.744 1415.29 109.984 1414.73 109.024C1414.17 108.048 1413.89 106.936 1413.89 105.688C1413.89 104.424 1414.17 103.312 1414.73 102.352C1415.29 101.392 1416.05 100.64 1417.01 100.096C1417.97 99.552 1419.06 99.28 1420.3 99.28C1421.54 99.28 1422.65 99.552 1423.61 100.096C1424.58 100.64 1425.34 101.392 1425.89 102.352C1426.45 103.312 1426.73 104.424 1426.73 105.688C1426.73 106.936 1426.45 108.048 1425.89 109.024C1425.34 109.984 1424.58 110.744 1423.61 111.304C1422.63 111.848 1421.53 112.12 1420.3 112.12ZM1420.3 110.608C1421.21 110.608 1422.02 110.408 1422.72 110.008C1423.42 109.592 1423.98 109.016 1424.38 108.28C1424.79 107.528 1425 106.664 1425 105.688C1425 104.696 1424.79 103.832 1424.38 103.096C1423.98 102.36 1423.42 101.792 1422.72 101.392C1422.02 100.976 1421.22 100.768 1420.32 100.768C1419.42 100.768 1418.62 100.976 1417.92 101.392C1417.22 101.792 1416.66 102.36 1416.24 103.096C1415.82 103.832 1415.62 104.696 1415.62 105.688C1415.62 106.664 1415.82 107.528 1416.24 108.28C1416.66 109.016 1417.22 109.592 1417.92 110.008C1418.62 110.408 1419.42 110.608 1420.3 110.608ZM1430.37 112V99.4H1432.07V104.968H1440.02V99.4H1441.72V112H1440.02V106.432H1432.07V112H1430.37ZM1451.75 112.12C1450.53 112.12 1449.44 111.848 1448.46 111.304C1447.5 110.744 1446.74 109.984 1446.18 109.024C1445.62 108.048 1445.34 106.936 1445.34 105.688C1445.34 104.424 1445.62 103.312 1446.18 102.352C1446.74 101.392 1447.5 100.64 1448.46 100.096C1449.42 99.552 1450.52 99.28 1451.75 99.28C1453 99.28 1454.1 99.552 1455.06 100.096C1456.04 100.64 1456.8 101.392 1457.34 102.352C1457.9 103.312 1458.18 104.424 1458.18 105.688C1458.18 106.936 1457.9 108.048 1457.34 109.024C1456.8 109.984 1456.04 110.744 1455.06 111.304C1454.08 111.848 1452.98 112.12 1451.75 112.12ZM1451.75 110.608C1452.66 110.608 1453.47 110.408 1454.17 110.008C1454.88 109.592 1455.43 109.016 1455.83 108.28C1456.24 107.528 1456.45 106.664 1456.45 105.688C1456.45 104.696 1456.24 103.832 1455.83 103.096C1455.43 102.36 1454.88 101.792 1454.17 101.392C1453.47 100.976 1452.67 100.768 1451.77 100.768C1450.88 100.768 1450.08 100.976 1449.37 101.392C1448.67 101.792 1448.11 102.36 1447.69 103.096C1447.28 103.832 1447.07 104.696 1447.07 105.688C1447.07 106.664 1447.28 107.528 1447.69 108.28C1448.11 109.016 1448.67 109.592 1449.37 110.008C1450.08 110.408 1450.87 110.608 1451.75 110.608ZM1461.82 112V99.4H1467.39C1468.81 99.4 1469.93 99.672 1470.75 100.216C1471.58 100.76 1472 101.56 1472 102.616C1472 103.64 1471.61 104.432 1470.82 104.992C1470.04 105.536 1469.01 105.808 1467.73 105.808L1468.06 105.304C1469.57 105.304 1470.67 105.584 1471.37 106.144C1472.08 106.704 1472.43 107.512 1472.43 108.568C1472.43 109.656 1472.03 110.504 1471.23 111.112C1470.45 111.704 1469.22 112 1467.56 112H1461.82ZM1463.48 110.656H1467.49C1468.56 110.656 1469.37 110.488 1469.91 110.152C1470.47 109.8 1470.75 109.24 1470.75 108.472C1470.75 107.704 1470.5 107.144 1470.01 106.792C1469.51 106.44 1468.73 106.264 1467.65 106.264H1463.48V110.656ZM1463.48 104.992H1467.27C1468.25 104.992 1468.99 104.808 1469.5 104.44C1470.03 104.072 1470.29 103.536 1470.29 102.832C1470.29 102.128 1470.03 101.6 1469.5 101.248C1468.99 100.896 1468.25 100.72 1467.27 100.72H1463.48V104.992ZM1094.42 141V128.4H1099.99C1101.42 128.4 1102.54 128.672 1103.35 129.216C1104.18 129.76 1104.6 130.56 1104.6 131.616C1104.6 132.64 1104.21 133.432 1103.42 133.992C1102.64 134.536 1101.61 134.808 1100.33 134.808L1100.66 134.304C1102.17 134.304 1103.27 134.584 1103.98 135.144C1104.68 135.704 1105.03 136.512 1105.03 137.568C1105.03 138.656 1104.63 139.504 1103.83 140.112C1103.05 140.704 1101.82 141 1100.16 141H1094.42ZM1096.08 139.656H1100.09C1101.16 139.656 1101.97 139.488 1102.51 139.152C1103.07 138.8 1103.35 138.24 1103.35 137.472C1103.35 136.704 1103.1 136.144 1102.61 135.792C1102.11 135.44 1101.33 135.264 1100.26 135.264H1096.08V139.656ZM1096.08 133.992H1099.87C1100.85 133.992 1101.59 133.808 1102.1 133.44C1102.63 133.072 1102.9 132.536 1102.9 131.832C1102.9 131.128 1102.63 130.6 1102.1 130.248C1101.59 129.896 1100.85 129.72 1099.87 129.72H1096.08V133.992ZM1113 140.976L1113.12 139.512C1113.23 139.528 1113.34 139.552 1113.43 139.584C1113.55 139.6 1113.64 139.608 1113.72 139.608C1114.23 139.608 1114.64 139.416 1114.95 139.032C1115.27 138.648 1115.51 138.136 1115.67 137.496C1115.83 136.856 1115.94 136.136 1116 135.336C1116.07 134.52 1116.12 133.704 1116.17 132.888L1116.39 128.4H1125.63V141H1123.92V129.384L1124.35 129.888H1117.49L1117.9 129.36L1117.71 133.008C1117.66 134.096 1117.57 135.136 1117.44 136.128C1117.33 137.12 1117.15 137.992 1116.89 138.744C1116.65 139.496 1116.31 140.088 1115.88 140.52C1115.45 140.936 1114.9 141.144 1114.23 141.144C1114.03 141.144 1113.83 141.128 1113.63 141.096C1113.43 141.064 1113.23 141.024 1113 140.976ZM1135.87 141.12C1134.56 141.12 1133.41 140.848 1132.41 140.304C1131.42 139.744 1130.65 138.984 1130.09 138.024C1129.53 137.048 1129.25 135.936 1129.25 134.688C1129.25 133.44 1129.51 132.336 1130.04 131.376C1130.58 130.416 1131.32 129.664 1132.25 129.12C1133.19 128.56 1134.25 128.28 1135.41 128.28C1136.6 128.28 1137.65 128.552 1138.56 129.096C1139.49 129.624 1140.21 130.376 1140.74 131.352C1141.27 132.312 1141.53 133.424 1141.53 134.688C1141.53 134.768 1141.53 134.856 1141.51 134.952C1141.51 135.032 1141.51 135.12 1141.51 135.216H1130.54V133.944H1140.6L1139.93 134.448C1139.93 133.536 1139.73 132.728 1139.33 132.024C1138.94 131.304 1138.41 130.744 1137.74 130.344C1137.07 129.944 1136.29 129.744 1135.41 129.744C1134.55 129.744 1133.77 129.944 1133.09 130.344C1132.4 130.744 1131.86 131.304 1131.48 132.024C1131.09 132.744 1130.9 133.568 1130.9 134.496V134.76C1130.9 135.72 1131.11 136.568 1131.53 137.304C1131.96 138.024 1132.55 138.592 1133.3 139.008C1134.07 139.408 1134.94 139.608 1135.92 139.608C1136.69 139.608 1137.4 139.472 1138.05 139.2C1138.73 138.928 1139.3 138.512 1139.78 137.952L1140.74 139.056C1140.18 139.728 1139.48 140.24 1138.63 140.592C1137.8 140.944 1136.88 141.12 1135.87 141.12ZM1153.27 135.672C1152.54 135.992 1151.79 136.248 1151.04 136.44C1150.31 136.616 1149.57 136.704 1148.83 136.704C1147.35 136.704 1146.17 136.368 1145.31 135.696C1144.44 135.008 1144.01 133.952 1144.01 132.528V128.4H1145.69V132.432C1145.69 133.392 1146 134.112 1146.63 134.592C1147.25 135.072 1148.09 135.312 1149.15 135.312C1149.79 135.312 1150.46 135.232 1151.16 135.072C1151.87 134.896 1152.58 134.648 1153.3 134.328L1153.27 135.672ZM1153.13 141V128.4H1154.83V141H1153.13ZM1165.07 141.12C1163.76 141.12 1162.61 140.848 1161.62 140.304C1160.63 139.744 1159.85 138.984 1159.29 138.024C1158.73 137.048 1158.45 135.936 1158.45 134.688C1158.45 133.44 1158.71 132.336 1159.24 131.376C1159.79 130.416 1160.52 129.664 1161.45 129.12C1162.39 128.56 1163.45 128.28 1164.62 128.28C1165.8 128.28 1166.85 128.552 1167.76 129.096C1168.69 129.624 1169.42 130.376 1169.95 131.352C1170.47 132.312 1170.74 133.424 1170.74 134.688C1170.74 134.768 1170.73 134.856 1170.71 134.952C1170.71 135.032 1170.71 135.12 1170.71 135.216H1159.75V133.944H1169.8L1169.13 134.448C1169.13 133.536 1168.93 132.728 1168.53 132.024C1168.15 131.304 1167.62 130.744 1166.95 130.344C1166.27 129.944 1165.5 129.744 1164.62 129.744C1163.75 129.744 1162.98 129.944 1162.29 130.344C1161.6 130.744 1161.07 131.304 1160.68 132.024C1160.3 132.744 1160.11 133.568 1160.11 134.496V134.76C1160.11 135.72 1160.31 136.568 1160.73 137.304C1161.16 138.024 1161.75 138.592 1162.51 139.008C1163.27 139.408 1164.15 139.608 1165.12 139.608C1165.89 139.608 1166.6 139.472 1167.26 139.2C1167.93 138.928 1168.51 138.512 1168.99 137.952L1169.95 139.056C1169.39 139.728 1168.68 140.24 1167.83 140.592C1167 140.944 1166.08 141.12 1165.07 141.12ZM1180.17 141.144C1179.15 141.144 1178.24 140.976 1177.44 140.64C1176.65 140.304 1175.98 139.792 1175.42 139.104C1174.86 138.416 1174.44 137.568 1174.15 136.56C1173.86 135.536 1173.72 134.352 1173.72 133.008C1173.72 131.808 1173.83 130.76 1174.05 129.864C1174.28 128.952 1174.59 128.168 1174.99 127.512C1175.39 126.856 1175.85 126.304 1176.38 125.856C1176.93 125.392 1177.51 125.024 1178.13 124.752C1178.77 124.464 1179.43 124.248 1180.1 124.104L1185.77 122.784L1186.05 124.368L1180.73 125.568C1180.39 125.648 1179.98 125.76 1179.5 125.904C1179.04 126.048 1178.56 126.264 1178.06 126.552C1177.58 126.84 1177.13 127.24 1176.72 127.752C1176.3 128.264 1175.97 128.928 1175.71 129.744C1175.47 130.544 1175.35 131.544 1175.35 132.744C1175.35 133 1175.36 133.208 1175.37 133.368C1175.39 133.512 1175.41 133.672 1175.42 133.848C1175.45 134.008 1175.48 134.248 1175.49 134.568L1174.75 133.944C1174.93 132.968 1175.29 132.12 1175.83 131.4C1176.37 130.664 1177.05 130.096 1177.87 129.696C1178.7 129.28 1179.62 129.072 1180.63 129.072C1181.8 129.072 1182.84 129.328 1183.75 129.84C1184.66 130.336 1185.37 131.032 1185.89 131.928C1186.41 132.824 1186.68 133.864 1186.68 135.048C1186.68 136.216 1186.41 137.264 1185.86 138.192C1185.33 139.12 1184.58 139.848 1183.61 140.376C1182.63 140.888 1181.49 141.144 1180.17 141.144ZM1180.37 139.728C1181.26 139.728 1182.05 139.528 1182.74 139.128C1183.43 138.712 1183.97 138.152 1184.35 137.448C1184.75 136.744 1184.95 135.952 1184.95 135.072C1184.95 134.208 1184.75 133.44 1184.35 132.768C1183.97 132.096 1183.43 131.568 1182.74 131.184C1182.05 130.784 1181.25 130.584 1180.34 130.584C1179.45 130.584 1178.65 130.776 1177.97 131.16C1177.28 131.528 1176.73 132.048 1176.33 132.72C1175.95 133.392 1175.76 134.168 1175.76 135.048C1175.76 135.928 1175.95 136.72 1176.33 137.424C1176.73 138.128 1177.28 138.688 1177.97 139.104C1178.67 139.52 1179.47 139.728 1180.37 139.728ZM1190.33 141V128.4H1192.03V133.968H1199.98V128.4H1201.68V141H1199.98V135.432H1192.03V141H1190.33ZM1218.81 141V128.4H1220.52V141H1218.81ZM1211.83 132.84C1213.41 132.856 1214.62 133.208 1215.45 133.896C1216.29 134.584 1216.7 135.576 1216.7 136.872C1216.7 138.216 1216.25 139.248 1215.36 139.968C1214.46 140.688 1213.18 141.04 1211.52 141.024L1206.53 141V128.4H1208.23V132.792L1211.83 132.84ZM1211.4 139.728C1212.58 139.744 1213.47 139.512 1214.06 139.032C1214.67 138.536 1214.97 137.816 1214.97 136.872C1214.97 135.928 1214.68 135.24 1214.09 134.808C1213.49 134.36 1212.6 134.128 1211.4 134.112L1208.23 134.064V139.68L1211.4 139.728ZM1223.31 141L1228.63 134.088L1228.61 134.928L1223.55 128.4H1225.47L1229.62 133.8L1228.9 133.776L1233.05 128.4H1234.92L1229.81 135L1229.83 134.088L1235.21 141H1233.27L1228.87 135.24L1229.55 135.336L1225.23 141H1223.31ZM1244.5 145.776C1243.91 145.776 1243.34 145.68 1242.8 145.488C1242.27 145.296 1241.81 145.008 1241.43 144.624L1242.22 143.352C1242.54 143.656 1242.88 143.888 1243.25 144.048C1243.64 144.224 1244.06 144.312 1244.52 144.312C1245.08 144.312 1245.56 144.152 1245.96 143.832C1246.38 143.528 1246.77 142.984 1247.14 142.2L1247.96 140.352L1248.15 140.088L1253.33 128.4H1255.01L1248.7 142.512C1248.35 143.328 1247.96 143.976 1247.52 144.456C1247.11 144.936 1246.65 145.272 1246.16 145.464C1245.66 145.672 1245.11 145.776 1244.5 145.776ZM1247.86 141.36L1242.05 128.4H1243.83L1248.96 139.968L1247.86 141.36ZM1265.63 135.672C1264.9 135.992 1264.15 136.248 1263.4 136.44C1262.67 136.616 1261.93 136.704 1261.19 136.704C1259.71 136.704 1258.53 136.368 1257.67 135.696C1256.8 135.008 1256.37 133.952 1256.37 132.528V128.4H1258.05V132.432C1258.05 133.392 1258.36 134.112 1258.99 134.592C1259.61 135.072 1260.45 135.312 1261.51 135.312C1262.15 135.312 1262.82 135.232 1263.52 135.072C1264.23 134.896 1264.94 134.648 1265.66 134.328L1265.63 135.672ZM1265.49 141V128.4H1267.19V141H1265.49ZM1278.54 141.12C1277.45 141.12 1276.47 140.872 1275.59 140.376C1274.71 139.864 1274 139.136 1273.47 138.192C1272.96 137.232 1272.71 136.064 1272.71 134.688C1272.71 133.312 1272.96 132.152 1273.47 131.208C1273.99 130.248 1274.68 129.52 1275.56 129.024C1276.44 128.528 1277.43 128.28 1278.54 128.28C1279.74 128.28 1280.81 128.552 1281.75 129.096C1282.71 129.624 1283.47 130.376 1284.01 131.352C1284.55 132.312 1284.83 133.424 1284.83 134.688C1284.83 135.968 1284.55 137.088 1284.01 138.048C1283.47 139.008 1282.71 139.76 1281.75 140.304C1280.81 140.848 1279.74 141.12 1278.54 141.12ZM1272.03 145.656V128.4H1273.67V132.192L1273.5 134.712L1273.74 137.256V145.656H1272.03ZM1278.42 139.608C1279.31 139.608 1280.11 139.408 1280.82 139.008C1281.52 138.592 1282.08 138.016 1282.5 137.28C1282.91 136.528 1283.12 135.664 1283.12 134.688C1283.12 133.712 1282.91 132.856 1282.5 132.12C1282.08 131.384 1281.52 130.808 1280.82 130.392C1280.11 129.976 1279.31 129.768 1278.42 129.768C1277.52 129.768 1276.71 129.976 1275.99 130.392C1275.29 130.808 1274.73 131.384 1274.31 132.12C1273.91 132.856 1273.71 133.712 1273.71 134.688C1273.71 135.664 1273.91 136.528 1274.31 137.28C1274.73 138.016 1275.29 138.592 1275.99 139.008C1276.71 139.408 1277.52 139.608 1278.42 139.608ZM1293.89 141.12C1292.57 141.12 1291.42 140.848 1290.43 140.304C1289.44 139.744 1288.66 138.984 1288.1 138.024C1287.54 137.048 1287.26 135.936 1287.26 134.688C1287.26 133.44 1287.53 132.336 1288.05 131.376C1288.6 130.416 1289.33 129.664 1290.26 129.12C1291.21 128.56 1292.26 128.28 1293.43 128.28C1294.61 128.28 1295.66 128.552 1296.57 129.096C1297.5 129.624 1298.23 130.376 1298.76 131.352C1299.29 132.312 1299.55 133.424 1299.55 134.688C1299.55 134.768 1299.54 134.856 1299.53 134.952C1299.53 135.032 1299.53 135.12 1299.53 135.216H1288.56V133.944H1298.61L1297.94 134.448C1297.94 133.536 1297.74 132.728 1297.34 132.024C1296.96 131.304 1296.43 130.744 1295.76 130.344C1295.09 129.944 1294.31 129.744 1293.43 129.744C1292.57 129.744 1291.79 129.944 1291.1 130.344C1290.41 130.744 1289.88 131.304 1289.49 132.024C1289.11 132.744 1288.92 133.568 1288.92 134.496V134.76C1288.92 135.72 1289.13 136.568 1289.54 137.304C1289.97 138.024 1290.57 138.592 1291.32 139.008C1292.09 139.408 1292.96 139.608 1293.93 139.608C1294.7 139.608 1295.41 139.472 1296.07 139.2C1296.74 138.928 1297.32 138.512 1297.8 137.952L1298.76 139.056C1298.2 139.728 1297.49 140.24 1296.65 140.592C1295.81 140.944 1294.89 141.12 1293.89 141.12ZM1317.92 141L1313.6 134.76L1315.02 133.92L1319.96 141H1317.92ZM1310.77 135.384V133.92H1314.75V135.384H1310.77ZM1315.19 134.88L1313.55 134.64L1317.75 128.4H1319.6L1315.19 134.88ZM1302.99 141H1300.95L1305.9 133.92L1307.29 134.76L1302.99 141ZM1311.3 141H1309.59V128.4H1311.3V141ZM1310.12 135.384H1306.16V133.92H1310.12V135.384ZM1305.75 134.88L1301.31 128.4H1303.16L1307.34 134.64L1305.75 134.88ZM1331.44 140.184V129.888H1325.37L1325.22 132.696C1325.19 133.544 1325.14 134.376 1325.06 135.192C1324.99 136.008 1324.87 136.76 1324.7 137.448C1324.54 138.12 1324.3 138.672 1324 139.104C1323.7 139.52 1323.3 139.76 1322.82 139.824L1321.12 139.512C1321.62 139.528 1322.02 139.352 1322.34 138.984C1322.66 138.6 1322.91 138.08 1323.09 137.424C1323.26 136.768 1323.39 136.024 1323.47 135.192C1323.55 134.344 1323.62 133.48 1323.66 132.6L1323.83 128.4H1333.14V140.184H1331.44ZM1320.59 144.048V139.512H1335.11V144.048H1333.5V141H1322.2V144.048H1320.59ZM1343.83 141.12C1342.52 141.12 1341.37 140.848 1340.38 140.304C1339.38 139.744 1338.61 138.984 1338.05 138.024C1337.49 137.048 1337.21 135.936 1337.21 134.688C1337.21 133.44 1337.47 132.336 1338 131.376C1338.54 130.416 1339.28 129.664 1340.21 129.12C1341.15 128.56 1342.21 128.28 1343.38 128.28C1344.56 128.28 1345.61 128.552 1346.52 129.096C1347.45 129.624 1348.18 130.376 1348.7 131.352C1349.23 132.312 1349.5 133.424 1349.5 134.688C1349.5 134.768 1349.49 134.856 1349.47 134.952C1349.47 135.032 1349.47 135.12 1349.47 135.216H1338.5V133.944H1348.56L1347.89 134.448C1347.89 133.536 1347.69 132.728 1347.29 132.024C1346.9 131.304 1346.38 130.744 1345.7 130.344C1345.03 129.944 1344.26 129.744 1343.38 129.744C1342.51 129.744 1341.74 129.944 1341.05 130.344C1340.36 130.744 1339.82 131.304 1339.44 132.024C1339.06 132.744 1338.86 133.568 1338.86 134.496V134.76C1338.86 135.72 1339.07 136.568 1339.49 137.304C1339.92 138.024 1340.51 138.592 1341.26 139.008C1342.03 139.408 1342.9 139.608 1343.88 139.608C1344.65 139.608 1345.36 139.472 1346.02 139.2C1346.69 138.928 1347.26 138.512 1347.74 137.952L1348.7 139.056C1348.14 139.728 1347.44 140.24 1346.59 140.592C1345.76 140.944 1344.84 141.12 1343.83 141.12ZM1353.27 141V128.4H1354.97V133.968H1362.92V128.4H1364.62V141H1362.92V135.432H1354.97V141H1353.27ZM1369.46 141V128.4H1371.17V138.408L1379.59 128.4H1381.1V141H1379.4V130.968L1371 141H1369.46ZM1394.12 141V136.464L1394.43 136.824H1390.16C1388.55 136.824 1387.28 136.472 1386.37 135.768C1385.46 135.064 1385 134.04 1385 132.696C1385 131.256 1385.49 130.184 1386.47 129.48C1387.44 128.76 1388.75 128.4 1390.38 128.4H1395.68V141H1394.12ZM1384.91 141L1388.36 136.152H1390.14L1386.75 141H1384.91ZM1394.12 135.96V129.384L1394.43 129.888H1390.43C1389.26 129.888 1388.35 130.112 1387.69 130.56C1387.05 131.008 1386.73 131.736 1386.73 132.744C1386.73 134.616 1387.92 135.552 1390.31 135.552H1394.43L1394.12 135.96ZM1398.48 141L1403.81 134.088L1403.78 134.928L1398.72 128.4H1400.64L1404.79 133.8L1404.07 133.776L1408.22 128.4H1410.09L1404.98 135L1405.01 134.088L1410.38 141H1408.44L1404.05 135.24L1404.72 135.336L1400.4 141H1398.48Z" fill="#061F79"/>
<path d="M10.35 128V109.1H55.35C57.55 109.1 59.55 108.55 61.35 107.45C63.15 106.35 64.6 104.9 65.7 103.1C66.8 101.2 67.35 99.15 67.35 96.95C67.35 94.65 66.8 92.6 65.7 90.8C64.6 88.9 63.15 87.4 61.35 86.3C59.55 85.2 57.55 84.65 55.35 84.65H37.8C31.9 84.65 26.55 83.45 21.75 81.05C16.95 78.65 13.1 75.2 10.2 70.7C7.4 66.1 6 60.6 6 54.2C6 47.9 7.35 42.45 10.05 37.85C12.75 33.15 16.4 29.5 21 26.9C25.6 24.3 30.7 23 36.3 23H81.9V41.9H38.4C36.4 41.9 34.55 42.45 32.85 43.55C31.15 44.55 29.8 45.9 28.8 47.6C27.9 49.3 27.45 51.2 27.45 53.3C27.45 55.4 27.9 57.3 28.8 59C29.8 60.7 31.15 62.05 32.85 63.05C34.55 64.05 36.4 64.55 38.4 64.55H56.55C63.05 64.55 68.7 65.8 73.5 68.3C78.3 70.8 82 74.3 84.6 78.8C87.3 83.3 88.65 88.55 88.65 94.55C88.65 101.65 87.25 107.7 84.45 112.7C81.75 117.7 78.05 121.5 73.35 124.1C68.75 126.7 63.65 128 58.05 128H10.35ZM103.646 128V18.5H124.196V80.75H136.346L154.796 51.5H177.296L156.296 83.9C162.796 86.6 167.846 90.75 171.446 96.35C175.046 101.95 176.846 108.2 176.846 115.1V128H156.296V115.1C156.296 112 155.496 109.2 153.896 106.7C152.396 104.1 150.396 102.05 147.896 100.55C145.396 99.05 142.596 98.3 139.496 98.3H124.196V128H103.646ZM192.545 128V73.25C192.545 66.45 194.445 61.15 198.245 57.35C202.145 53.45 207.495 51.5 214.295 51.5H235.445V69.05H217.895C216.595 69.05 215.445 69.5 214.445 70.4C213.545 71.3 213.095 72.45 213.095 73.85V128H192.545ZM246.762 128V51.5H267.462V128H246.762ZM257.112 42.35C253.612 42.35 250.562 41.1 247.962 38.6C245.462 36 244.212 32.95 244.212 29.45C244.212 25.95 245.462 22.95 247.962 20.45C250.562 17.85 253.612 16.55 257.112 16.55C260.612 16.55 263.612 17.85 266.112 20.45C268.712 22.95 270.012 25.95 270.012 29.45C270.012 32.95 268.712 36 266.112 38.6C263.612 41.1 260.612 42.35 257.112 42.35ZM326.352 49.7C332.852 49.7 338.602 50.75 343.602 52.85C348.602 54.85 352.802 57.75 356.202 61.55C359.602 65.25 362.202 69.65 364.002 74.75C365.802 79.75 366.702 85.25 366.702 91.25C366.702 98.75 365.152 105.4 362.052 111.2C359.052 117 354.802 121.55 349.302 124.85C343.802 128.15 337.302 129.8 329.802 129.8C326.602 129.8 323.502 129.35 320.502 128.45C317.602 127.55 314.952 126.25 312.552 124.55C310.252 122.85 308.302 120.85 306.702 118.55H306.552V161H286.002V91.25C286.002 82.75 287.652 75.4 290.952 69.2C294.252 63 298.902 58.2 304.902 54.8C311.002 51.4 318.152 49.7 326.352 49.7ZM326.352 67.25C322.352 67.25 318.852 68.25 315.852 70.25C312.952 72.25 310.702 74.95 309.102 78.35C307.602 81.75 306.852 85.55 306.852 89.75C306.852 93.95 307.602 97.75 309.102 101.15C310.702 104.55 312.952 107.25 315.852 109.25C318.852 111.25 322.352 112.25 326.352 112.25C330.452 112.25 333.952 111.25 336.852 109.25C339.752 107.25 341.952 104.55 343.452 101.15C345.052 97.75 345.852 93.95 345.852 89.75C345.852 85.55 345.052 81.75 343.452 78.35C341.952 74.95 339.752 72.25 336.852 70.25C333.952 68.25 330.452 67.25 326.352 67.25ZM405.294 128C398.494 128 393.144 126.05 389.244 122.15C385.444 118.25 383.544 112.95 383.544 106.25V32.3H404.094V105.65C404.094 106.95 404.544 108.1 405.444 109.1C406.444 110 407.594 110.45 408.894 110.45H425.544V128H405.294ZM370.494 69.05V51.5H425.544V69.05H370.494ZM475.113 129.8C467.213 129.8 460.163 128.05 453.963 124.55C447.763 120.95 442.863 116.15 439.263 110.15C435.663 104.05 433.863 97.25 433.863 89.75C433.863 82.25 435.663 75.5 439.263 69.5C442.863 63.4 447.763 58.6 453.963 55.1C460.163 51.5 467.213 49.7 475.113 49.7C483.013 49.7 490.063 51.5 496.263 55.1C502.463 58.6 507.363 63.4 510.963 69.5C514.563 75.5 516.363 82.25 516.363 89.75C516.363 97.25 514.563 104.05 510.963 110.15C507.363 116.15 502.463 120.95 496.263 124.55C490.063 128.05 483.013 129.8 475.113 129.8ZM475.113 112.25C479.313 112.25 482.913 111.25 485.913 109.25C489.013 107.25 491.363 104.55 492.963 101.15C494.663 97.75 495.513 93.95 495.513 89.75C495.513 85.55 494.663 81.75 492.963 78.35C491.363 74.95 489.013 72.25 485.913 70.25C482.913 68.25 479.313 67.25 475.113 67.25C470.913 67.25 467.263 68.25 464.163 70.25C461.163 72.25 458.813 74.95 457.113 78.35C455.513 81.75 454.713 85.55 454.713 89.75C454.713 93.95 455.513 97.75 457.113 101.15C458.813 104.55 461.163 107.25 464.163 109.25C467.263 111.25 470.913 112.25 475.113 112.25ZM530.631 128V73.25C530.631 66.45 532.531 61.15 536.331 57.35C540.231 53.45 545.581 51.5 552.381 51.5H573.531V69.05H555.981C554.681 69.05 553.531 69.5 552.531 70.4C551.631 71.3 551.181 72.45 551.181 73.85V128H530.631ZM584.848 128V51.5H605.548V128H584.848ZM595.198 42.35C591.698 42.35 588.648 41.1 586.048 38.6C583.548 36 582.298 32.95 582.298 29.45C582.298 25.95 583.548 22.95 586.048 20.45C588.648 17.85 591.698 16.55 595.198 16.55C598.698 16.55 601.698 17.85 604.198 20.45C606.798 22.95 608.098 25.95 608.098 29.45C608.098 32.95 606.798 36 604.198 38.6C601.698 41.1 598.698 42.35 595.198 42.35ZM662.188 129.8C654.388 129.8 647.688 128.25 642.088 125.15C636.488 122.05 632.188 117.9 629.188 112.7C626.288 107.5 624.838 101.75 624.838 95.45V51.5H645.388V95.45C645.388 98.55 646.138 101.4 647.638 104C649.138 106.5 651.138 108.5 653.638 110C656.238 111.5 659.088 112.25 662.188 112.25C665.288 112.25 668.088 111.5 670.588 110C673.188 108.5 675.238 106.5 676.738 104C678.238 101.4 678.988 98.55 678.988 95.45V51.5H699.538V95.45C699.538 101.75 698.038 107.5 695.038 112.7C692.138 117.9 687.888 122.05 682.288 125.15C676.788 128.25 670.088 129.8 662.188 129.8ZM719.027 128V82.55C719.027 76.55 720.477 71.05 723.377 66.05C726.277 61.05 730.427 57.1 735.827 54.2C741.327 51.2 747.927 49.7 755.627 49.7C759.327 49.7 762.727 50.15 765.827 51.05C769.027 51.85 771.977 53.05 774.677 54.65C777.377 56.25 779.727 58.15 781.727 60.35H781.877C783.977 58.15 786.377 56.25 789.077 54.65C791.777 53.05 794.727 51.85 797.927 51.05C801.127 50.15 804.577 49.7 808.277 49.7C815.977 49.7 822.527 51.2 827.927 54.2C833.427 57.1 837.627 61.05 840.527 66.05C843.427 71.05 844.877 76.55 844.877 82.55V128H824.327V82.55C824.327 79.75 823.577 77.2 822.077 74.9C820.677 72.6 818.777 70.75 816.377 69.35C813.977 67.95 811.277 67.25 808.277 67.25C805.377 67.25 802.677 67.95 800.177 69.35C797.777 70.75 795.827 72.6 794.327 74.9C792.927 77.2 792.227 79.75 792.227 82.55V128H771.677V82.55C771.677 79.75 770.927 77.2 769.427 74.9C768.027 72.6 766.127 70.75 763.727 69.35C761.327 67.95 758.627 67.25 755.627 67.25C752.727 67.25 750.027 67.95 747.527 69.35C745.127 70.75 743.177 72.6 741.677 74.9C740.277 77.2 739.577 79.75 739.577 82.55V128H719.027Z" fill="#061F79"/>
</svg>
