<svg width="92" height="104" viewBox="0 0 92 104" fill="none" xmlns="http://www.w3.org/2000/svg">
<path d="M90.5 26.3906L47.9888 2.03025C46.7569 1.32434 45.2431 1.32434 44.0112 2.03025L3.51124 25.2381C2.26731 25.9509 1.5 27.275 1.5 28.7087V75.0726C1.5 76.5063 2.26731 77.8303 3.51125 78.5431L44.0113 101.751C45.2431 102.457 46.7569 102.457 47.9888 101.751L90.5 77.3906" stroke="#061F79" stroke-width="3" stroke-linecap="round"/>
<path d="M84.5 29.8906L47.9846 9.02465C46.7548 8.32195 45.2452 8.32195 44.0154 9.02466L9.51544 28.7389C8.26914 29.4511 7.5 30.7765 7.5 32.2119V71.5693C7.5 73.0048 8.26914 74.3301 9.51544 75.0423L44.0154 94.7566C45.2452 95.4593 46.7548 95.4593 47.9846 94.7566L84.5 73.8906" stroke="#061F79" stroke-width="2" stroke-linecap="round"/>
</svg>
